# Blender 4.3.2
# www.blender.org
o Cylinder
v 0.000000 0.014143 0.000000
v 0.000000 0.014143 -0.123177
v 0.000000 4.821680 -0.123177
v 0.096304 0.014143 -0.076800
v 0.096304 4.821680 -0.076800
v 0.120089 0.014143 0.027410
v 0.120089 4.821680 0.027410
v 0.053445 0.014143 0.110979
v 0.053445 4.821680 0.110979
v -0.053445 0.014143 0.110979
v -0.053445 4.821680 0.110979
v -0.120089 0.014143 0.027410
v -0.120089 4.821680 0.027410
v -0.096304 0.014143 -0.076800
v -0.096304 4.821680 -0.076800
v 0.000000 4.896999 -0.064633
v 0.000000 4.921483 -0.000000
v 0.050532 4.896999 -0.040298
v 0.063013 4.896999 0.014382
v 0.028043 4.896999 0.058233
v -0.028043 4.896999 0.058233
v -0.063013 4.896999 0.014382
v -0.050532 4.896999 -0.040298
v 0.000000 1.616815 0.019435
v 0.096304 1.625076 0.065071
v 0.120089 1.643638 0.167614
v 0.053445 1.658523 0.249847
v -0.053445 1.658523 0.249847
v -0.120089 1.643638 0.167614
v -0.096304 1.625076 0.065071
v 0.000000 3.227680 -0.158071
v 0.096304 3.228635 -0.111890
v 0.120089 3.230782 -0.008120
v 0.053445 3.232504 0.075097
v -0.053445 3.232504 0.075097
v -0.120089 3.230782 -0.008120
v -0.096304 3.228635 -0.111890
v 0.111574 3.884995 0.961957
v 0.111574 4.686010 0.855298
v 0.286910 3.958961 0.877118
v 0.286910 4.610286 0.790398
v 0.281732 3.420823 -0.574304
v 0.281732 4.660657 -0.810824
v 0.123094 3.761447 -0.331628
v 0.123094 4.472550 -0.478107
v 0.281732 3.811203 -0.411358
v 0.281732 4.387159 -0.538891
v 0.123094 4.733244 -0.518129
v 0.123094 4.660657 -0.810824
v 0.123094 3.420823 -0.574304
v 0.281732 3.542094 -0.372109
v 0.123094 3.489058 -0.295350
v 0.281732 4.649240 -0.583700
v 0.123094 3.994864 -1.462494
v 0.123094 3.808752 -1.437651
v 0.281732 3.853371 -1.374692
v 0.281732 3.967579 -1.390638
v 0.281732 4.471959 -0.480120
v 0.286910 4.685915 0.855298
v 0.286910 3.884995 0.961957
v 0.281732 3.761400 -0.331800
v 0.281732 4.733095 -0.518676
v 0.281732 3.489058 -0.295350
v 0.281732 3.494997 -0.562508
v 0.281732 3.994847 -1.462556
v 0.281732 3.808749 -1.437652
v 0.281732 4.599954 -0.780989
v 0.243599 4.599877 -0.780989
v 0.243599 3.494920 -0.562508
v 0.243599 4.387157 -0.538896
v 0.243599 3.811246 -0.411363
v 0.244763 4.610286 0.790398
v 0.244763 3.959009 0.877118
v 0.243599 4.649141 -0.583700
v 0.243599 3.541997 -0.372109
v 0.243599 3.967579 -1.390640
v 0.243599 3.853371 -1.374692
v 0.117657 3.852323 0.258476
v 0.284210 4.612393 0.153485
v 0.117755 4.612023 0.155022
v 0.284255 3.851661 0.257539
v 0.284258 4.541628 0.162852
v 0.284258 3.922851 0.248018
v 0.244166 4.541628 0.162852
v 0.244166 3.922851 0.248018
vn -0.0000 -1.0000 -0.0000
vn -0.0000 0.3101 -0.9507
vn -0.7457 0.3062 -0.5917
vn -0.4997 0.7690 -0.3985
vn -0.0000 0.7691 -0.6392
vn -0.0000 -0.0435 -0.9991
vn 0.7457 0.3062 -0.5917
vn 0.7727 -0.0280 -0.6341
vn 0.4136 0.2901 0.8630
vn 0.9300 0.2974 0.2160
vn 0.6232 0.7691 0.1422
vn 0.2773 0.7691 0.5759
vn 0.9787 0.0087 0.2050
vn 0.4997 0.7691 -0.3985
vn 0.4408 0.0398 0.8967
vn -0.9300 0.2974 0.2160
vn -0.6232 0.7691 0.1422
vn -0.4136 0.2901 0.8630
vn -0.4408 0.0398 0.8967
vn -0.9787 0.0087 0.2050
vn -0.2773 0.7691 0.5759
vn -0.7727 -0.0280 -0.6341
vn -0.0000 1.0000 -0.0000
vn -0.7658 0.0565 -0.6406
vn -0.7938 -0.0075 -0.6081
vn -0.0000 -0.0062 -1.0000
vn -0.0000 0.0882 -0.9961
vn -0.9793 -0.0169 0.2015
vn -0.9684 -0.0009 0.2493
vn -0.4384 -0.0759 0.8956
vn -0.4223 0.0145 0.9063
vn 0.4384 -0.0759 0.8956
vn 0.4223 0.0145 0.9063
vn 0.9793 -0.0169 0.2015
vn 0.9684 -0.0009 0.2493
vn 0.7658 0.0565 -0.6406
vn 0.7938 -0.0075 -0.6081
vn -0.0000 -0.9122 -0.4099
vn 0.0003 -0.1686 -0.9857
vn -0.0000 0.1320 0.9913
vn -0.0018 -0.9989 0.0468
vn -0.0013 0.9945 -0.1046
vn -1.0000 -0.0000 -0.0000
vn 0.0083 0.1489 0.9888
vn -1.0000 -0.0014 -0.0085
vn -0.0000 0.9706 -0.2407
vn -0.0000 -0.9714 0.2376
vn -0.0000 0.1383 0.9904
vn 0.0006 0.1323 0.9912
vn -0.0002 -0.1325 -0.9912
vn 0.0007 -0.6941 0.7199
vn -0.0001 0.6995 -0.7146
vn 1.0000 0.0016 -0.0041
vn 1.0000 -0.0000 -0.0000
vn 1.0000 -0.0025 -0.0038
vn 1.0000 -0.0001 -0.0009
vn -0.0000 -0.9941 0.1088
vn 0.0022 -0.9702 0.2423
vn -0.0022 0.9708 -0.2401
vn -0.0001 -0.1320 -0.9913
vn -0.0009 0.9149 0.4037
vn 0.0002 -0.1443 -0.9895
vn 0.0005 0.9860 -0.1669
vn 0.0006 0.9984 -0.0573
vn -0.0000 -0.9766 0.2150
vn 1.0000 -0.0001 -0.0008
vn 1.0000 -0.0027 -0.0036
vn 1.0000 0.0019 -0.0042
vn -1.0000 -0.0011 -0.0087
vn -0.0017 0.9764 -0.2158
vn -0.0016 -0.9884 0.1518
vt 0.056490 0.060586
vt 0.041772 0.047064
vt 0.057885 0.040648
vt 0.056604 0.895768
vt 0.044888 0.893176
vt 0.050178 0.884162
vt 0.055555 0.885587
vt 0.130444 0.602145
vt 0.129442 0.856995
vt 0.112252 0.857084
vt 0.113413 0.601911
vt 0.072947 0.049245
vt 0.071329 0.866898
vt 0.073498 0.879763
vt 0.062774 0.878416
vt 0.061359 0.872809
vt 0.095064 0.857372
vt 0.096363 0.601472
vt 0.075617 0.066382
vt 0.067576 0.890680
vt 0.060397 0.883284
vt 0.077876 0.857589
vt 0.079144 0.601111
vt 0.063884 0.079154
vt 0.036742 0.884225
vt 0.046640 0.879120
vt 0.060685 0.857508
vt 0.061799 0.601061
vt 0.046583 0.077944
vt 0.044343 0.857165
vt 0.044579 0.601322
vt 0.036742 0.063663
vt 0.055974 0.869290
vt 0.048599 0.870607
vt 0.164527 0.601731
vt 0.163814 0.857640
vt 0.146630 0.857218
vt 0.147476 0.602041
vt 0.054895 0.878041
vt 0.150502 0.076957
vt 0.149169 0.340973
vt 0.131672 0.339615
vt 0.133174 0.076178
vt 0.167773 0.078542
vt 0.166254 0.343879
vt 0.062868 0.345609
vt 0.045849 0.343317
vt 0.081227 0.079217
vt 0.080004 0.345678
vt 0.098540 0.078132
vt 0.097040 0.343521
vt 0.115836 0.076724
vt 0.114159 0.340792
vt 0.273637 0.087596
vt 0.297233 0.081414
vt 0.325404 0.227608
vt 0.301388 0.230325
vt 0.406516 0.626990
vt 0.406443 0.669756
vt 0.400310 0.669746
vt 0.400382 0.626996
vt 0.510578 0.488445
vt 0.510578 0.618405
vt 0.482376 0.618421
vt 0.482376 0.488445
vt 0.557363 0.373324
vt 0.530531 0.373740
vt 0.529956 0.260148
vt 0.558146 0.260096
vt 0.509106 0.121006
vt 0.482376 0.120764
vt 0.482376 0.007445
vt 0.510590 0.007694
vt 0.902898 0.358832
vt 0.811648 0.505609
vt 0.777016 0.509336
vt 0.669057 0.370862
vt 0.520197 0.675733
vt 0.494679 0.675768
vt 0.494698 0.633310
vt 0.520214 0.633310
vt 0.854336 0.307169
vt 0.903076 0.302890
vt 0.669057 0.317587
vt 0.719740 0.312118
vt 0.710105 0.201773
vt 0.851561 0.186929
vt 0.273526 0.405285
vt 0.299560 0.411148
vt 0.286068 0.462267
vt 0.259411 0.454703
vt 0.259630 0.046431
vt 0.283228 0.038695
vt 0.406073 0.434452
vt 0.406118 0.452999
vt 0.399985 0.453014
vt 0.399939 0.434467
vt 0.507892 0.746960
vt 0.482376 0.746964
vt 0.482376 0.702765
vt 0.507892 0.702765
vt 0.326072 0.257892
vt 0.301351 0.255404
vt 0.406467 0.594283
vt 0.400333 0.594289
vt 0.520550 0.121395
vt 0.520998 0.237394
vt 0.509621 0.225226
vt 0.522534 0.502039
vt 0.522531 0.607725
vt 0.518986 0.374282
vt 0.517532 0.273293
vt 0.483330 0.687875
vt 0.482376 0.645120
vt 0.262626 0.089952
vt 0.252018 0.059374
vt 0.518998 0.712858
vt 0.519513 0.756598
vt 0.289904 0.253584
vt 0.290232 0.230926
vt 0.252017 0.437396
vt 0.262857 0.401946
vt 0.836887 0.654794
vt 0.721661 0.642579
vt 0.737240 0.526509
vt 0.858388 0.539891
vt 0.827625 0.778510
vt 0.877861 0.783430
vt 0.877861 0.819814
vt 0.669144 0.809959
vt 0.669057 0.772236
vt 0.718232 0.775833
vt 0.777145 0.950117
vt 0.755867 0.947904
vt 0.406670 0.785330
vt 0.406939 0.886869
vt 0.400160 0.886859
vt 0.400222 0.785320
vt 0.405689 0.260118
vt 0.405725 0.291665
vt 0.399591 0.291675
vt 0.399555 0.260129
vt 0.406776 0.992555
vt 0.399996 0.992537
vt 0.405722 0.216375
vt 0.399588 0.216364
vt 0.406326 0.108810
vt 0.399878 0.108798
vt 0.406939 0.007458
vt 0.400160 0.007445
vt 0.523099 0.481368
vt 0.532657 0.469752
vt 0.521490 0.019478
vt 0.684984 0.073562
vt 0.834026 0.057475
vt 0.484083 0.225098
vt 0.558146 0.469283
s 1
f 1/1/1 2/2/1 4/3/1
f 3/4/2 15/5/3 23/6/4 16/7/5
f 31/8/6 3/9/2 5/10/7 32/11/8
f 1/1/1 4/3/1 6/12/1
f 9/13/9 7/14/10 19/15/11 20/16/12
f 32/11/8 5/10/7 7/17/10 33/18/13
f 1/1/1 6/12/1 8/19/1
f 5/20/7 3/4/2 16/7/5 18/21/14
f 33/18/13 7/17/10 9/22/9 34/23/15
f 1/1/1 8/19/1 10/24/1
f 15/5/3 13/25/16 22/26/17 23/6/4
f 34/23/15 9/22/9 11/27/18 35/28/19
f 1/1/1 10/24/1 12/29/1
f 7/14/10 5/20/7 18/21/14 19/15/11
f 35/28/19 11/27/18 13/30/16 36/31/20
f 1/1/1 12/29/1 14/32/1
f 13/30/16 11/27/18 21/33/21 22/34/17
f 36/35/20 13/36/16 15/37/3 37/38/22
f 1/1/1 14/32/1 2/2/1
f 11/27/18 9/13/9 20/16/12 21/33/21
f 37/38/22 15/37/3 3/9/2 31/8/6
f 17/39/23 18/21/14 16/7/5
f 17/39/23 19/15/11 18/21/14
f 17/39/23 20/16/12 19/15/11
f 17/39/23 21/33/21 20/16/12
f 17/39/23 22/34/17 21/33/21
f 17/39/23 23/6/4 22/26/17
f 17/39/23 16/7/5 23/6/4
f 14/40/24 30/41/25 24/42/26 2/43/27
f 12/44/28 29/45/29 30/41/25 14/40/24
f 10/24/30 28/46/31 29/47/29 12/29/28
f 8/48/32 27/49/33 28/46/31 10/24/30
f 6/50/34 26/51/35 27/49/33 8/48/32
f 4/52/36 25/53/37 26/51/35 6/50/34
f 2/43/27 24/42/26 25/53/37 4/52/36
f 30/41/25 37/38/22 31/8/6 24/42/26
f 29/45/29 36/35/20 37/38/22 30/41/25
f 28/46/31 35/28/19 36/31/20 29/47/29
f 27/49/33 34/23/15 35/28/19 28/46/31
f 26/51/35 33/18/13 34/23/15 27/49/33
f 25/53/37 32/11/8 33/18/13 26/51/35
f 24/42/26 31/8/6 32/11/8 25/53/37
s 0
f 42/54/38 50/55/38 55/56/38 66/57/38
f 53/58/39 47/59/39 70/60/39 74/61/39
f 60/62/40 59/63/40 39/64/40 38/65/40
f 78/66/41 81/67/41 60/68/41 38/69/41
f 79/70/42 80/71/42 39/72/42 59/73/42
f 49/74/43 54/75/43 55/76/43 50/77/43
f 45/78/44 58/79/44 62/80/44 48/81/44
f 45/82/43 48/83/43 49/74/43 50/77/43 52/84/43 44/85/43
f 78/86/45 80/87/45 45/82/45 44/85/45
f 43/88/46 49/89/46 48/90/46 62/91/46
f 50/55/47 42/54/47 63/92/47 52/93/47
f 56/94/48 57/95/48 76/96/48 77/97/48
f 61/98/49 44/99/49 52/100/49 63/101/49
f 55/56/50 54/102/50 65/103/50 66/57/50
f 57/95/51 67/104/51 68/105/51 76/96/51
f 49/89/52 43/88/52 65/103/52 54/102/52
f 82/106/53 47/107/53 58/108/53 79/70/53
f 40/109/54 41/110/54 59/63/54 60/62/54
f 83/111/55 40/112/55 60/68/55 81/67/55
f 47/113/54 53/114/54 62/80/54 58/79/54
f 64/115/54 51/116/54 63/92/54 42/54/54
f 51/117/54 46/118/54 61/98/54 63/101/54
f 57/119/54 56/120/54 66/57/54 65/103/54
f 53/121/54 67/122/54 43/88/54 62/91/54
f 56/120/54 64/115/54 42/54/54 66/57/54
f 67/122/54 57/119/54 65/103/54 43/88/54
f 85/123/56 84/124/56 72/125/56 73/126/56
f 71/127/54 75/128/54 69/129/54 68/130/54 74/131/54 70/132/54
f 68/130/54 69/129/54 77/133/54 76/134/54
f 82/135/57 41/136/57 72/137/57 84/138/57
f 67/104/58 53/58/58 74/61/58 68/105/58
f 51/139/59 64/140/59 69/141/59 75/142/59
f 41/136/60 40/143/60 73/144/60 72/137/60
f 64/140/61 56/94/61 77/97/61 69/141/61
f 46/145/62 51/139/62 75/142/62 71/146/62
f 83/147/63 46/145/63 71/146/63 85/148/63
f 40/149/64 83/147/64 85/148/64 73/150/64
f 47/59/65 82/135/65 84/138/65 70/60/65
f 71/127/66 70/132/66 84/124/66 85/123/66
f 46/151/67 83/111/67 81/67/67 61/152/67
f 41/153/68 82/106/68 79/70/68 59/73/68
f 38/154/69 39/155/69 80/87/69 78/86/69
f 58/108/70 45/156/70 80/71/70 79/70/70
f 44/157/71 61/152/71 81/67/71 78/66/71
