# Blender 4.5.2 LTS
# www.blender.org
mtllib Caixa.mtl
o Cube
v 1.000000 1.000000 -1.000000
v 1.000000 -1.000000 -1.000000
v 1.000000 1.000000 1.000000
v 1.000000 -1.000000 1.000000
v -1.000000 1.000000 -1.000000
v -1.000000 -1.000000 -1.000000
v -1.000000 1.000000 1.000000
v -1.000000 -1.000000 1.000000
v 0.770970 1.000000 -0.770970
v -0.770970 1.000000 -0.770970
v -0.770970 1.000000 0.770970
v 0.770970 1.000000 0.770970
v 0.770970 -0.770970 1.000000
v 0.770970 0.770970 1.000000
v -0.770970 0.770970 1.000000
v -0.770970 -0.770970 1.000000
v -1.000000 -0.770970 0.770970
v -1.000000 0.770970 0.770970
v -1.000000 0.770970 -0.770970
v -1.000000 -0.770970 -0.770970
v -0.770970 -1.000000 -0.770970
v 0.770970 -1.000000 -0.770970
v 0.770970 -1.000000 0.770970
v -0.770970 -1.000000 0.770970
v 1.000000 -0.770970 -0.770970
v 1.000000 0.770970 -0.770970
v 1.000000 0.770970 0.770970
v 1.000000 -0.770970 0.770970
v -0.770970 -0.770970 -1.000000
v -0.770970 0.770970 -1.000000
v 0.770970 0.770970 -1.000000
v 0.770970 -0.770970 -1.000000
v -0.770970 0.886523 -0.770970
v 0.770970 0.886523 -0.770970
v 0.770970 0.886523 0.770970
v -0.770970 0.886523 0.770970
v 0.770970 0.770970 0.886523
v 0.770970 -0.770970 0.886523
v -0.770970 -0.770970 0.886523
v -0.770970 0.770970 0.886523
v -0.886523 -0.770970 0.770970
v -0.886523 0.770970 0.770970
v -0.886523 -0.770970 -0.770970
v -0.886523 0.770970 -0.770970
v 0.770970 -0.886523 -0.770970
v -0.770970 -0.886523 -0.770970
v -0.770970 -0.886523 0.770970
v 0.770970 -0.886523 0.770970
v 0.886523 0.770970 -0.770970
v 0.886523 -0.770970 -0.770970
v 0.886523 -0.770970 0.770970
v 0.886523 0.770970 0.770970
v -0.770970 0.770970 -0.886523
v -0.770970 -0.770970 -0.886523
v 0.770970 -0.770970 -0.886523
v 0.770970 0.770970 -0.886523
vn -1.0000 -0.0000 -0.0000
vn 1.0000 -0.0000 -0.0000
vn -0.0000 1.0000 -0.0000
vn -0.0000 -1.0000 -0.0000
vn -0.0000 -0.0000 -1.0000
vn -0.0000 -0.0000 1.0000
vt 0.668871 0.777709
vt 0.467297 0.774905
vt 0.474438 0.767878
vt 0.661253 0.769974
vt 0.667434 0.238600
vt 0.467060 0.235279
vt 0.474147 0.228439
vt 0.660345 0.230086
vt 0.467060 0.506348
vt 0.467069 0.306854
vt 0.474151 0.313697
vt 0.474147 0.499508
vt 0.206485 0.506348
vt 0.206494 0.306854
vt 0.213575 0.313697
vt 0.213571 0.499508
vt 0.206485 0.777418
vt 0.206494 0.577923
vt 0.213575 0.584766
vt 0.213571 0.770578
vt 0.206494 0.035785
vt 0.406839 0.032475
vt 0.399759 0.040986
vt 0.213575 0.042627
vt 0.436957 0.542138
vt 0.436957 0.813208
vt 0.406858 0.780738
vt 0.406839 0.574613
vt 0.176381 0.806828
vt 0.176381 0.548518
vt 0.436957 0.006379
vt 0.697532 0.000000
vt 0.667414 0.032475
vt 0.467069 0.035785
vt 0.697532 0.271069
vt 0.436957 0.264690
vt 0.436957 0.542138
vt 0.176381 0.535759
vt 0.406858 0.509669
vt 0.176381 0.277448
vt 0.436957 0.271069
vt 0.406839 0.303544
vt 0.699565 0.546253
vt 0.699565 0.808894
vt 0.669225 0.576127
vt 0.436957 0.804779
vt 0.436957 0.542138
vt 0.467651 0.573323
vt 0.436957 0.277448
vt 0.697532 0.271069
vt 0.667414 0.303544
vt 0.697532 0.542138
vt 0.667434 0.509669
vt 0.436957 0.535759
vt 0.176381 0.006379
vt 0.436957 0.000000
vt 0.436957 0.271069
vt 0.406858 0.238600
vt 0.176381 0.264690
vt 0.206485 0.235279
vt 0.623749 0.995686
vt 0.436957 0.995686
vt 0.436957 0.808894
vt 0.623749 0.808894
vt 0.886358 0.728931
vt 0.699565 0.728931
vt 0.699565 0.542138
vt 0.886358 0.542138
vt 0.884325 0.186792
vt 0.697532 0.186792
vt 0.697532 0.000000
vt 0.884325 0.000000
vt 0.363173 1.000000
vt 0.176381 1.000000
vt 0.176381 0.813208
vt 0.363173 0.813208
vt 0.886358 0.915723
vt 0.699565 0.915723
vt 0.699565 0.728931
vt 0.886358 0.728931
vt 0.884325 0.373585
vt 0.697532 0.373585
vt 0.697532 0.186792
vt 0.884325 0.186792
vt 0.213571 0.228439
vt 0.399759 0.312055
vt 0.660345 0.501155
vt 0.660335 0.312055
vt 0.475269 0.581058
vt 0.399769 0.230086
vt 0.399769 0.772225
vt 0.399759 0.583124
vt 0.660335 0.040986
vt 0.474151 0.042627
vt 0.399769 0.501155
vt 0.662084 0.583154
s 0
usemtl Material
f 22/1/1 23/2/1 48/3/1 45/4/1
f 15/5/2 16/6/2 39/7/2 40/8/2
f 28/9/3 25/10/3 50/11/3 51/12/3
f 18/13/4 19/14/4 44/15/4 42/16/4
f 11/17/5 12/18/5 35/19/5 36/20/5
f 29/21/2 30/22/2 53/23/2 54/24/2
f 1/25/3 5/26/3 10/27/3 9/28/3
f 5/26/3 7/29/3 11/17/3 10/27/3
f 7/29/3 3/30/3 12/18/3 11/17/3
f 3/30/3 1/25/3 9/28/3 12/18/3
f 4/31/6 3/32/6 14/33/6 13/34/6
f 3/32/6 7/35/6 15/5/6 14/33/6
f 7/35/6 8/36/6 16/6/6 15/5/6
f 8/36/6 4/31/6 13/34/6 16/6/6
f 8/37/1 7/38/1 18/13/1 17/39/1
f 7/38/1 5/40/1 19/14/1 18/13/1
f 5/40/1 6/41/1 20/42/1 19/14/1
f 6/41/1 8/37/1 17/39/1 20/42/1
f 6/43/4 2/44/4 22/1/4 21/45/4
f 2/44/4 4/46/4 23/2/4 22/1/4
f 4/46/4 8/47/4 24/48/4 23/2/4
f 8/47/4 6/43/4 21/45/4 24/48/4
f 2/49/2 1/50/2 26/51/2 25/10/2
f 1/50/2 3/52/2 27/53/2 26/51/2
f 3/52/2 4/54/2 28/9/2 27/53/2
f 4/54/2 2/49/2 25/10/2 28/9/2
f 6/55/5 5/56/5 30/22/5 29/21/5
f 5/56/5 1/57/5 31/58/5 30/22/5
f 1/57/5 2/59/5 32/60/5 31/58/5
f 2/59/5 6/55/5 29/21/5 32/60/5
f 34/61/3 33/62/3 36/63/3 35/64/3
f 38/65/6 37/66/6 40/67/6 39/68/6
f 41/69/1 42/70/1 44/71/1 43/72/1
f 46/73/4 45/74/4 48/75/4 47/76/4
f 50/77/2 49/78/2 52/79/2 51/80/2
f 54/81/5 53/82/5 56/83/5 55/84/5
f 32/60/3 29/21/3 54/24/3 55/85/3
f 19/14/6 20/42/6 43/86/6 44/15/6
f 26/51/4 27/53/4 52/87/4 49/88/4
f 23/2/5 24/48/5 47/89/5 48/3/5
f 30/22/4 31/58/4 56/90/4 53/23/4
f 27/53/5 28/9/5 51/12/5 52/87/5
f 31/58/1 32/60/1 55/85/1 56/90/1
f 9/28/6 10/27/6 33/91/6 34/92/6
f 13/34/1 14/33/1 37/93/1 38/94/1
f 12/18/1 9/28/1 34/92/1 35/19/1
f 17/39/5 18/13/5 42/16/5 41/95/5
f 16/6/3 13/34/3 38/94/3 39/7/3
f 21/45/6 22/1/6 45/4/6 46/96/6
f 10/27/2 11/17/2 36/20/2 33/91/2
f 20/42/3 17/39/3 41/95/3 43/86/3
f 25/10/6 26/51/6 49/88/6 50/11/6
f 14/33/4 15/5/4 40/8/4 37/93/4
f 24/48/2 21/45/2 46/96/2 47/89/2
o Cube.001
v 0.606595 -0.969846 -0.827779
v -0.960632 0.604772 -0.827779
v 0.606595 -0.969846 -0.975358
v -0.960632 0.604772 -0.975358
v 0.954298 -0.623775 -0.827779
v -0.612929 0.950844 -0.827779
v 0.954298 -0.623775 -0.975358
v -0.612929 0.950844 -0.975358
v 0.606595 -0.969846 0.827779
v -0.960632 0.604772 0.827779
v 0.606595 -0.969846 0.975358
v -0.960632 0.604772 0.975358
v 0.954298 -0.623775 0.827779
v -0.612929 0.950844 0.827779
v 0.954298 -0.623775 0.975358
v -0.612929 0.950844 0.975358
vn -0.7088 -0.7054 -0.0000
vn -0.0000 -0.0000 -1.0000
vn 0.7088 0.7054 -0.0000
vn -0.0000 -0.0000 1.0000
vn 0.7054 -0.7088 -0.0000
vn -0.7054 0.7088 -0.0000
vt 0.020395 0.000000
vt 0.020395 0.307021
vt 0.000000 0.307021
vt 0.000000 0.000000
vt 0.155986 0.000000
vt 0.155986 0.307021
vt 0.088190 0.307021
vt 0.088190 0.000000
vt 0.176381 0.000000
vt 0.176381 0.307021
vt 0.155986 0.000000
vt 0.088190 0.307021
vt 0.020395 0.307021
vt 0.020395 0.374817
vt -0.000000 0.374817
vt 0.000000 0.307021
vt 0.040790 0.307021
vt 0.040790 0.374817
vt 0.020395 0.374817
vt 0.020395 0.307021
s 0
f 57/97/7 58/98/7 60/99/7 59/100/7
f 59/101/8 60/102/8 64/103/8 63/104/8
f 63/105/9 64/106/9 62/102/9 61/107/9
f 61/104/10 62/108/10 58/98/10 57/97/10
f 59/109/11 63/110/11 61/111/11 57/112/11
f 64/113/12 60/114/12 58/115/12 62/116/12
f 65/97/7 67/100/7 68/99/7 66/98/7
f 67/101/10 71/104/10 72/103/10 68/102/10
f 71/105/9 69/107/9 70/102/9 72/106/9
f 69/104/8 65/97/8 66/98/8 70/108/8
f 67/109/11 65/112/11 69/111/11 71/110/11
f 72/113/12 70/116/12 66/115/12 68/114/12
o Cube.002
v 0.827835 -0.960725 0.607524
v 0.827835 0.613893 -0.959703
v 0.975413 -0.960725 0.607524
v 0.975413 0.613893 -0.959703
v 0.827835 -0.614654 0.955227
v 0.827835 0.959965 -0.612000
v 0.975413 -0.614654 0.955227
v 0.975413 0.959965 -0.612000
v -0.827835 -0.960725 0.607524
v -0.827835 0.613893 -0.959703
v -0.975413 -0.960725 0.607524
v -0.975414 0.613893 -0.959703
v -0.827835 -0.614654 0.955228
v -0.827835 0.959965 -0.612000
v -0.975413 -0.614654 0.955228
v -0.975414 0.959965 -0.612000
vn -0.0000 -0.7054 -0.7088
vn 1.0000 -0.0000 -0.0000
vn -0.0000 0.7054 0.7088
vn -1.0000 -0.0000 -0.0000
vn -0.0000 -0.7088 0.7054
vn -0.0000 0.7088 -0.7054
vt 0.020395 0.000000
vt 0.020395 0.307021
vt 0.000000 0.307021
vt 0.000000 0.000000
vt 0.155986 0.000000
vt 0.155986 0.307021
vt 0.088190 0.307021
vt 0.088190 0.000000
vt 0.176381 0.000000
vt 0.176381 0.307021
vt 0.155986 0.000000
vt 0.088190 0.307021
vt 0.020395 0.307021
vt 0.020395 0.374817
vt -0.000000 0.374817
vt 0.000000 0.307021
vt 0.040790 0.307021
vt 0.040790 0.374817
vt 0.020395 0.374817
vt 0.020395 0.307021
s 0
f 73/117/13 74/118/13 76/119/13 75/120/13
f 75/121/14 76/122/14 80/123/14 79/124/14
f 79/125/15 80/126/15 78/122/15 77/127/15
f 77/124/16 78/128/16 74/118/16 73/117/16
f 75/129/17 79/130/17 77/131/17 73/132/17
f 80/133/18 76/134/18 74/135/18 78/136/18
f 81/117/13 83/120/13 84/119/13 82/118/13
f 83/121/16 87/124/16 88/123/16 84/122/16
f 87/125/15 85/127/15 86/122/15 88/126/15
f 85/124/14 81/117/14 82/118/14 86/128/14
f 83/129/17 81/132/17 85/131/17 87/130/17
f 88/133/18 86/136/18 82/135/18 84/134/18
