# Blender 4.4.3
# www.blender.org
o Cerca_Dupla
v -0.237649 -0.171356 8.694282
v -0.237649 6.828176 8.694282
v -0.237649 -0.171356 8.218984
v -0.237649 6.828176 8.218984
v 0.237649 -0.171356 8.694282
v 0.237649 6.828176 8.694282
v 0.237649 -0.171356 8.218984
v 0.237649 6.828176 8.218984
v -0.237649 -0.171357 0.964129
v -0.237649 6.828174 0.964128
v -0.237649 -0.171357 1.439427
v -0.237649 6.828174 1.439426
v 0.237649 -0.171357 0.964129
v 0.237649 6.828174 0.964128
v 0.237649 -0.171357 1.439427
v 0.237649 6.828174 1.439426
v 0.211728 6.198785 11.011947
v 0.211728 6.523290 -0.019549
v 0.211728 5.723487 11.011947
v 0.211728 6.047992 -0.019549
v 0.687026 6.198785 11.011947
v 0.687026 6.523290 -0.019549
v 0.687026 5.723487 11.011947
v 0.687026 6.047992 -0.019549
v 0.211728 4.675939 11.011947
v 0.211728 4.594954 -0.019549
v 0.211728 4.200641 11.011947
v 0.211728 4.119656 -0.019549
v 0.687026 4.675939 11.011947
v 0.687026 4.594954 -0.019549
v 0.687026 4.200641 11.011947
v 0.687026 4.119656 -0.019549
v -0.237649 -0.171359 -8.694282
v -0.237649 6.828174 -8.694283
v -0.237649 -0.171359 -8.218984
v -0.237649 6.828174 -8.218986
v 0.237649 -0.171359 -8.694282
v 0.237649 6.828174 -8.694283
v 0.237649 -0.171359 -8.218984
v 0.237649 6.828174 -8.218986
v -0.237649 -0.171357 -0.964129
v -0.237649 6.828174 -0.964129
v -0.237649 -0.171357 -1.439427
v -0.237649 6.828174 -1.439427
v 0.237649 -0.171357 -0.964129
v 0.237649 6.828174 -0.964129
v 0.237649 -0.171357 -1.439427
v 0.237649 6.828174 -1.439427
v 0.211728 6.630390 -11.011947
v 0.211728 6.155092 -11.011947
v 0.687026 6.630390 -11.011947
v 0.687026 6.155092 -11.011947
v 0.211728 4.944947 -11.011947
v 0.211728 4.469648 -11.011947
v 0.687026 4.944947 -11.011947
v 0.687026 4.469648 -11.011947
vn -1.0000 -0.0000 -0.0000
vn -0.0000 -0.0000 -1.0000
vn 1.0000 -0.0000 -0.0000
vn -0.0000 -0.0000 1.0000
vn -0.0000 1.0000 -0.0000
vn -0.0000 -0.9996 -0.0294
vn -0.0000 0.9996 0.0294
vn -0.0000 -1.0000 0.0073
vn -0.0000 1.0000 -0.0073
vn -0.0000 -1.0000 -0.0097
vn -0.0000 1.0000 0.0097
vn -0.0000 -0.9995 -0.0318
vn -0.0000 0.9995 0.0318
vt 0.375000 0.000000
vt 0.625000 0.000000
vt 0.625000 0.250000
vt 0.375000 0.250000
vt 0.625000 0.500000
vt 0.375000 0.500000
vt 0.625000 0.750000
vt 0.375000 0.750000
vt 0.625000 1.000000
vt 0.375000 1.000000
vt 0.875000 0.500000
vt 0.875000 0.750000
vt 0.125000 0.500000
vt 0.125000 0.750000
s 1
f 1/1/1 2/2/1 4/3/1 3/4/1
f 3/4/2 4/3/2 8/5/2 7/6/2
f 7/6/3 8/5/3 6/7/3 5/8/3
f 5/8/4 6/7/4 2/9/4 1/10/4
f 8/5/5 4/11/5 2/12/5 6/7/5
f 9/1/1 11/4/1 12/3/1 10/2/1
f 11/4/4 15/6/4 16/5/4 12/3/4
f 15/6/3 13/8/3 14/7/3 16/5/3
f 13/8/2 9/10/2 10/9/2 14/7/2
f 16/5/5 14/7/5 10/12/5 12/11/5
f 17/1/1 18/2/1 20/3/1 19/4/1
f 19/4/6 20/3/6 24/5/6 23/6/6
f 23/6/3 24/5/3 22/7/3 21/8/3
f 21/8/7 22/7/7 18/9/7 17/10/7
f 19/13/4 23/6/4 21/8/4 17/14/4
f 25/1/1 26/2/1 28/3/1 27/4/1
f 27/4/8 28/3/8 32/5/8 31/6/8
f 31/6/3 32/5/3 30/7/3 29/8/3
f 29/8/9 30/7/9 26/9/9 25/10/9
f 27/13/4 31/6/4 29/8/4 25/14/4
f 33/1/1 35/4/1 36/3/1 34/2/1
f 35/4/4 39/6/4 40/5/4 36/3/4
f 39/6/3 37/8/3 38/7/3 40/5/3
f 37/8/2 33/10/2 34/9/2 38/7/2
f 40/5/5 38/7/5 34/12/5 36/11/5
f 41/1/1 42/2/1 44/3/1 43/4/1
f 43/4/2 44/3/2 48/5/2 47/6/2
f 47/6/3 48/5/3 46/7/3 45/8/3
f 45/8/4 46/7/4 42/9/4 41/10/4
f 48/5/5 44/11/5 42/12/5 46/7/5
f 49/1/1 50/4/1 20/3/1 18/2/1
f 50/4/10 52/6/10 24/5/10 20/3/10
f 52/6/3 51/8/3 22/7/3 24/5/3
f 51/8/11 49/10/11 18/9/11 22/7/11
f 50/13/2 49/14/2 51/8/2 52/6/2
f 53/1/1 54/4/1 28/3/1 26/2/1
f 54/4/12 56/6/12 32/5/12 28/3/12
f 56/6/3 55/8/3 30/7/3 32/5/3
f 55/8/13 53/10/13 26/9/13 30/7/13
f 54/13/2 53/14/2 55/8/2 56/6/2
