# Blender 4.5.2 LTS
# www.blender.org
mtllib Level2_PlatformBase001.mtl
o Plane.009
v -80.000000 0.000000 50.000000
v -20.000000 0.000000 50.000000
v -80.000000 0.000000 10.000000
v -20.000000 0.000000 10.000000
v 40.000000 0.000000 40.000000
v -20.000000 0.000000 20.000000
v 40.000000 0.000000 20.000000
v -80.000000 0.000000 20.000000
v -80.000000 0.000000 40.000000
v -20.000000 0.000000 40.000000
v -80.000000 -40.500000 40.000000
v -80.000000 -40.500000 50.000000
v -20.000000 -40.500000 50.000000
v -20.000000 -40.500000 10.000000
v -80.000000 -40.500000 10.000000
v 40.000000 -40.500000 40.000000
v 40.000000 -40.500000 20.000000
v -20.000000 -40.500000 20.000000
v -80.000000 -40.500000 20.000000
v -20.000000 -40.500000 40.000000
vn -0.0000 1.0000 -0.0000
vn 1.0000 -0.0000 -0.0000
vn -0.0000 -0.0000 -1.0000
vn -0.0000 -0.0000 1.0000
vn -1.0000 -0.0000 -0.0000
vt 0.000000 0.750000
vt 1.000000 0.750000
vt 1.000000 1.000000
vt 0.000000 1.000000
vt 0.000000 0.000000
vt 1.000000 0.000000
vt 1.000000 0.416667
vt 0.000000 0.416667
s 1
f 8/1/1 6/2/1 4/3/1 3/4/1
f 10/5/1 5/6/1 7/3/1 6/4/1
f 1/5/1 2/6/1 10/7/1 9/8/1
f 9/8/1 10/7/1 6/2/1 8/1/1
f 19/1/1 18/2/1 14/3/1 15/4/1
f 20/5/1 16/6/1 17/3/1 18/4/1
f 12/5/1 13/6/1 20/7/1 11/8/1
f 11/8/1 20/7/1 18/2/1 19/1/1
f 10/7/2 2/6/2 13/6/2 20/7/2
f 6/4/3 7/3/3 17/3/3 18/4/3
f 5/6/4 10/5/4 20/5/4 16/6/4
f 2/6/4 1/5/4 12/5/4 13/6/4
f 8/1/5 3/4/5 15/4/5 19/1/5
f 3/4/3 4/3/3 14/3/3 15/4/3
f 4/3/2 6/2/2 18/2/2 14/3/2
f 9/8/5 8/1/5 19/1/5 11/8/5
f 7/3/2 5/6/2 16/6/2 17/3/2
f 1/5/5 9/8/5 11/8/5 12/5/5
