# Blender 4.5.2 LTS
# www.blender.org
mtllib Level2_PlatformBase005.mtl
o Plane.005
v -20.000002 1.999999 -342.000000
v -10.000002 2.000000 -342.000000
v -19.999998 1.999999 -312.000000
v -9.999998 2.000000 -312.000000
v -20.000000 1.999999 -322.000031
v -10.000000 2.000000 -321.999969
v 0.000000 2.000000 -321.999969
v -9.999998 2.000000 -311.999969
v 0.000001 2.000000 -311.999969
v -19.999996 -40.500000 -322.000031
v -19.999998 -40.500000 -342.000000
v -9.999998 -40.500000 -342.000000
v -9.999996 -40.500000 -321.999969
v -9.999994 -40.500000 -312.000000
v -19.999994 -40.500000 -312.000000
v -9.999994 -40.500000 -311.999969
v 0.000004 -40.500000 -321.999969
v 0.000005 -40.500000 -311.999969
vn -0.0000 1.0000 -0.0000
vn 1.0000 -0.0000 -0.0000
vn -1.0000 -0.0000 -0.0000
vn -0.0000 -0.0000 -1.0000
vn -0.0000 -0.0000 1.0000
vt 0.000000 0.500000
vt 0.000000 1.000000
vt 1.000000 1.000000
vt 1.000000 0.500000
vt 0.000000 0.000000
vt 1.000000 0.000000
s 0
f 5/1/1 3/2/1 4/3/1 6/4/1
f 1/5/1 5/1/1 6/4/1 2/6/1
f 6/5/1 8/2/1 9/3/1 7/6/1
f 10/1/1 15/2/1 14/3/1 13/4/1
f 11/5/1 10/1/1 13/4/1 12/6/1
f 13/5/1 16/2/1 18/3/1 17/6/1
f 7/6/2 9/3/2 18/3/2 17/6/2
f 5/1/3 1/5/3 11/5/3 10/1/3
f 8/2/3 6/5/3 13/5/3 16/2/3
f 3/2/3 5/1/3 10/1/3 15/2/3
f 1/5/4 2/6/4 12/6/4 11/5/4
f 6/5/4 7/6/4 17/6/4 13/5/4
f 2/6/2 6/4/2 13/4/2 12/6/2
f 6/4/2 4/3/2 14/3/2 13/4/2
f 9/3/5 8/2/5 16/2/5 18/3/5
f 4/3/5 3/2/5 15/2/5 14/3/5
