# Blender 4.5.2 LTS
# www.blender.org
mtllib Level2_PlatformFace007.mtl
o Plane.004
v -190.000000 8.000000 -503.000000
v -150.000000 8.000000 -503.000000
v -190.000000 8.000000 -543.000000
v -150.000000 8.000000 -543.000000
v -182.000000 8.000000 -535.000000
v -182.000000 8.000000 -511.000000
v -158.000000 8.000000 -511.000000
v -158.000000 8.000000 -535.000000
v -176.223297 13.000000 -529.223267
v -176.223297 13.000000 -516.776733
v -163.776703 13.000000 -516.776733
v -163.776703 13.000000 -529.223267
v -182.000000 13.000000 -535.000000
v -182.000000 13.000000 -511.000000
v -158.000000 13.000000 -511.000000
v -158.000000 13.000000 -535.000000
v -176.223297 18.000000 -529.223267
v -176.223297 18.000000 -516.776733
v -163.776703 18.000000 -516.776733
v -163.776703 18.000000 -529.223267
vn -0.0000 1.0000 -0.0000
vt 0.200000 0.200000
vt 0.200000 0.800000
vt 0.000000 1.000000
vt 0.000000 0.000000
vt 0.800000 0.200000
vt 1.000000 0.000000
vt 0.800000 0.800000
vt 1.000000 1.000000
vt 0.344418 0.344418
vt 0.344418 0.655582
vt 0.655582 0.344418
vt 0.655582 0.655582
s 0
f 6/1/1 5/2/1 3/3/1 1/4/1
f 7/5/1 6/1/1 1/4/1 2/6/1
f 8/7/1 7/5/1 2/6/1 4/8/1
f 5/2/1 8/7/1 4/8/1 3/3/1
f 10/9/1 9/10/1 13/2/1 14/1/1
f 11/11/1 10/9/1 14/1/1 15/5/1
f 12/12/1 11/11/1 15/5/1 16/7/1
f 9/10/1 12/12/1 16/7/1 13/2/1
f 18/9/1 19/11/1 20/12/1 17/10/1
