# Blender 4.5.2 LTS
# www.blender.org
mtllib Level2_PlatformBase003.mtl
o Plane.014
v -190.000000 8.000000 -312.000000
v -190.000000 8.000000 -482.000000
v -150.000000 8.000000 -482.000000
v -149.999985 8.000000 -272.000000
v -50.000000 8.000000 -272.000000
v -50.000000 8.000000 -352.000000
v -30.000000 8.000000 -312.000000
v -50.000000 8.000000 -312.000000
v -30.000000 8.000000 -352.000000
v -30.000000 8.000000 -321.999969
v -149.999985 8.000000 -312.000000
v -20.000000 8.000000 -311.999969
v -20.000000 8.000000 -321.999969
v -149.999985 8.000000 -352.000000
v -79.999992 8.000000 -352.000031
v -65.000000 8.000000 -312.000000
v -65.000000 8.000000 -272.000031
v -124.999992 8.000000 -392.000000
v -74.999992 8.000000 -392.000000
v -124.999992 8.000000 -451.999969
v -74.999992 8.000000 -451.999969
v -120.000000 8.000000 -272.000000
v -79.999992 8.000000 -272.000031
v -190.000000 8.000000 -352.000000
v -120.000000 8.000000 -352.000000
v -79.999992 8.000000 -312.000031
v -120.000000 8.000000 -312.000000
v -119.999992 8.000000 -392.000000
v -79.999992 8.000000 -392.000000
v -80.000000 8.000000 -452.000000
v -119.999992 8.000000 -451.999969
v -65.000000 8.000000 -352.000000
v -190.000000 8.000000 -321.999969
v -50.000000 8.000000 -321.999969
v -149.999985 8.000000 -321.999969
v -120.000000 8.000000 -321.999969
v -79.999992 8.000000 -322.000000
v -65.000000 8.000000 -321.999969
v -190.000000 -40.500000 -321.999969
v -190.000000 -40.500000 -312.000000
v -150.000000 -40.500000 -482.000000
v -190.000000 -40.500000 -482.000000
v -149.999985 -40.500000 -312.000000
v -149.999985 -40.500000 -272.000000
v -65.000000 -40.500000 -272.000031
v -50.000000 -40.500000 -272.000000
v -50.000000 -40.500000 -321.999969
v -50.000000 -40.500000 -352.000000
v -30.000000 -40.500000 -321.999969
v -30.000000 -40.500000 -352.000000
v -120.000000 -40.500000 -312.000000
v -30.000000 -40.500000 -312.000000
v -50.000000 -40.500000 -312.000000
v -20.000000 -40.500000 -311.999969
v -20.000000 -40.500000 -321.999969
v -120.000000 -40.500000 -352.000000
v -149.999985 -40.500000 -352.000000
v -65.000000 -40.500000 -352.000000
v -65.000000 -40.500000 -312.000000
v -124.999992 -40.500000 -451.999969
v -124.999992 -40.500000 -392.000000
v -79.999992 -40.500000 -392.000000
v -74.999992 -40.500000 -392.000000
v -74.999992 -40.500000 -451.999969
v -119.999992 -40.500000 -451.999969
v -120.000000 -40.500000 -272.000000
v -79.999992 -40.500000 -272.000031
v -190.000000 -40.500000 -352.000000
v -149.999985 -40.500000 -321.999969
v -79.999992 -40.500000 -312.000031
v -120.000000 -40.500000 -321.999969
v -79.999992 -40.500000 -352.000031
v -79.999992 -40.500000 -322.000000
v -119.999992 -40.500000 -392.000000
v -80.000000 -40.500000 -452.000000
v -65.000000 -40.500000 -321.999969
vn -0.0000 1.0000 -0.0000
vn -0.0000 -1.0000 -0.0000
vn -1.0000 -0.0000 -0.0000
vn -0.0000 -0.0000 -1.0000
vn 1.0000 -0.0000 -0.0000
vn -0.0000 -0.0000 1.0000
vt 0.000000 0.235294
vt 1.000000 0.235294
vt 1.000000 1.000000
vt 0.000000 1.000000
vt 0.816667 0.625000
vt 1.000000 0.625000
vt 0.816667 1.000000
vt 0.000000 0.500000
vt 1.000000 0.500000
vt 0.000000 0.000000
vt 1.000000 0.000000
vt 0.433333 0.000000
vt 0.433333 1.000000
vt 0.816667 0.000000
vt 0.816667 0.500000
vt 0.300000 0.000000
vt 0.300000 0.500000
vt 0.633333 0.000000
vt 0.633333 0.500000
vt 0.000000 0.625000
vt 0.300000 0.625000
vt 0.300000 1.000000
vt 0.633333 0.625000
vt 0.633333 1.000000
vt 0.000000 0.058823
vt 1.000000 0.058823
vt 0.100000 0.000000
vt 0.100000 1.000000
s 0
f 24/1/1 14/2/1 3/3/1 2/4/1
f 38/5/1 34/6/1 6/3/1 32/7/1
f 34/8/1 10/9/1 9/3/1 6/4/1
f 8/10/1 7/11/1 10/9/1 34/8/1
f 25/10/1 15/11/1 29/3/1 28/4/1
f 29/12/1 19/11/1 21/3/1 30/13/1
f 7/10/1 12/11/1 13/3/1 10/4/1
f 17/14/1 5/11/1 8/9/1 16/15/1
f 4/10/1 22/16/1 27/17/1 11/8/1
f 22/16/1 23/18/1 26/19/1 27/17/1
f 35/20/1 36/21/1 25/22/1 14/4/1
f 36/21/1 37/23/1 15/24/1 25/22/1
f 33/25/1 35/26/1 14/2/1 24/1/1
f 18/10/1 28/27/1 31/28/1 20/4/1
f 28/27/1 29/12/1 30/13/1 31/28/1
f 23/18/1 17/14/1 16/15/1 26/19/1
f 37/23/1 38/5/1 32/7/1 15/24/1
f 26/19/1 16/15/1 38/5/1 37/23/1
f 1/10/1 11/11/1 35/26/1 33/25/1
f 27/17/1 26/19/1 37/23/1 36/21/1
f 11/8/1 27/17/1 36/21/1 35/20/1
f 16/15/1 8/9/1 34/6/1 38/5/1
f 68/1/2 42/4/2 41/3/2 57/2/2
f 76/5/2 58/7/2 48/3/2 47/6/2
f 47/8/2 48/4/2 50/3/2 49/9/2
f 53/10/2 47/8/2 49/9/2 52/11/2
f 56/10/2 74/4/2 62/3/2 72/11/2
f 62/12/2 75/13/2 64/3/2 63/11/2
f 52/10/2 49/4/2 55/3/2 54/11/2
f 45/14/2 59/15/2 53/9/2 46/11/2
f 44/10/2 43/8/2 51/17/2 66/16/2
f 66/16/2 51/17/2 70/19/2 67/18/2
f 69/20/2 57/4/2 56/22/2 71/21/2
f 71/21/2 56/22/2 72/24/2 73/23/2
f 39/25/2 68/1/2 57/2/2 69/26/2
f 61/10/2 60/4/2 65/28/2 74/27/2
f 74/27/2 65/28/2 75/13/2 62/12/2
f 67/18/2 70/19/2 59/15/2 45/14/2
f 73/23/2 72/24/2 58/7/2 76/5/2
f 70/19/2 73/23/2 76/5/2 59/15/2
f 40/10/2 39/25/2 69/26/2 43/11/2
f 51/17/2 71/21/2 73/23/2 70/19/2
f 43/8/2 69/20/2 71/21/2 51/17/2
f 59/15/2 76/5/2 47/6/2 53/9/2
f 25/10/3 28/4/3 74/4/3 56/10/3
f 6/4/4 9/3/4 50/3/4 48/4/4
f 9/3/5 10/9/5 49/9/5 50/3/5
f 24/1/3 2/4/3 42/4/3 68/1/3
f 12/11/6 7/10/6 52/10/6 54/11/6
f 17/14/6 23/18/6 67/18/6 45/14/6
f 11/11/6 1/10/6 40/10/6 43/11/6
f 33/25/3 24/1/3 68/1/3 39/25/3
f 3/3/5 14/2/5 57/2/5 41/3/5
f 8/9/5 5/11/5 46/11/5 53/9/5
f 15/24/4 32/7/4 58/7/4 72/24/4
f 7/11/6 8/10/6 53/10/6 52/11/6
f 13/3/5 12/11/5 54/11/5 55/3/5
f 22/16/6 4/10/6 44/10/6 66/16/6
f 14/4/4 25/22/4 56/22/4 57/4/4
f 28/27/6 18/10/6 61/10/6 74/27/6
f 23/18/6 22/16/6 66/16/6 67/18/6
f 32/7/4 6/3/4 48/3/4 58/7/4
f 30/13/4 21/3/4 64/3/4 75/13/4
f 18/10/3 20/4/3 60/4/3 61/10/3
f 31/28/4 30/13/4 75/13/4 65/28/4
f 1/10/3 33/25/3 39/25/3 40/10/3
f 19/11/6 29/12/6 62/12/6 63/11/6
f 2/4/4 3/3/4 41/3/4 42/4/4
f 21/3/5 19/11/5 63/11/5 64/3/5
f 4/10/3 11/8/3 43/8/3 44/10/3
f 20/4/4 31/28/4 65/28/4 60/4/4
f 29/3/5 15/11/5 72/11/5 62/3/5
f 5/11/6 17/14/6 45/14/6 46/11/6
f 10/4/4 13/3/4 55/3/4 49/4/4
