# Blender 4.5.2 LTS
# www.blender.org
mtllib Level2_PlatformFace006.mtl
o Plane.007
v -10.000000 0.000000 -322.000000
v 10.000000 0.000000 -322.000000
v -10.000000 0.000000 -352.000000
v 10.000000 0.000000 -352.000000
v -10.000000 0.000000 -337.000000
v 10.000000 0.000000 -337.000000
v 10.000000 0.000000 -332.000000
v 30.000000 0.000000 -332.000000
v 10.000000 0.000000 -342.000000
v 30.000000 0.000000 -342.000000
v 30.000000 0.000000 -337.000000
v 0.000000 0.000000 -312.000031
v 10.000000 0.000000 -312.000031
v 0.000000 0.000000 -317.000031
v 10.000000 0.000000 -317.000031
v 0.000000 0.000000 -322.000000
v 0.000000 0.000000 -352.000000
v 0.000000 0.000000 -337.000000
v -10.000000 0.000000 -332.000000
v 0.000000 0.000000 -332.000000
v -10.000000 0.000000 -342.000000
v 0.000000 0.000000 -342.000000
vn -0.0000 1.0000 -0.0000
vt 0.500000 0.666667
vt 1.000000 0.666667
vt 1.000000 1.000000
vt 0.500000 1.000000
vt 0.500000 0.333333
vt 1.000000 0.333333
vt 1.000000 0.500000
vt 0.500000 0.500000
vt 0.000000 0.500000
vt 0.000000 1.000000
vt 0.000000 0.000000
vt 1.000000 0.000000
vt 0.000000 0.333333
vt 0.000000 0.666667
vt 0.500000 0.000000
s 0
f 22/1/1 9/2/1 4/3/1 17/4/1
f 20/5/1 7/6/1 6/7/1 18/8/1
f 6/9/1 11/7/1 10/3/1 9/10/1
f 7/11/1 8/12/1 11/7/1 6/9/1
f 14/9/1 15/7/1 2/3/1 16/10/1
f 12/11/1 13/12/1 15/7/1 14/9/1
f 19/13/1 20/5/1 18/8/1 5/9/1
f 21/14/1 22/1/1 17/4/1 3/10/1
f 1/11/1 16/15/1 20/5/1 19/13/1
f 16/15/1 2/12/1 7/6/1 20/5/1
f 5/9/1 18/8/1 22/1/1 21/14/1
f 18/8/1 6/7/1 9/2/1 22/1/1
