# Blender 4.5.2 LTS
# www.blender.org
mtllib Level2_PlatformFace008.mtl
o Plane.013
v 40.000000 4.000000 -80.000000
v 50.000000 4.000000 -80.000000
v 39.999996 4.000000 -89.999992
v 49.999996 4.000000 -89.999992
v 29.999998 4.000000 -89.999992
v 29.999998 4.000000 -99.999992
v 39.999996 4.000000 -99.999992
v 49.999996 4.000000 -99.999992
vn -0.0000 1.0000 -0.0000
vt 0.000000 0.000000
vt 1.000000 0.000000
vt 1.000000 1.000000
vt 0.000000 1.000000
s 0
f 1/1/1 2/2/1 4/3/1 3/4/1
f 5/1/1 3/2/1 7/3/1 6/4/1
f 3/1/1 4/2/1 8/3/1 7/4/1
