# Blender 4.5.2 LTS
# www.blender.org
mtllib Level2_PlatformBase008.mtl
o Plane.013
v 40.000000 4.000000 -80.000000
v 50.000000 4.000000 -80.000000
v 39.999996 4.000000 -89.999992
v 49.999996 4.000000 -89.999992
v 29.999998 4.000000 -89.999992
v 29.999998 4.000000 -99.999992
v 39.999996 4.000000 -99.999992
v 49.999996 4.000000 -99.999992
v 39.999996 -40.500000 -89.999992
v 40.000000 -40.500000 -80.000000
v 50.000000 -40.500000 -80.000000
v 49.999996 -40.500000 -89.999992
v 29.999998 -40.500000 -99.999992
v 29.999998 -40.500000 -89.999992
v 39.999996 -40.500000 -99.999992
v 49.999996 -40.500000 -99.999992
vn -0.0000 1.0000 -0.0000
vn -1.0000 -0.0000 -0.0000
vn 1.0000 -0.0000 -0.0000
vn -0.0000 -0.0000 -1.0000
vn -0.0000 -0.0000 1.0000
vt 0.000000 0.000000
vt 1.000000 0.000000
vt 1.000000 1.000000
vt 0.000000 1.000000
s 0
f 1/1/1 2/2/1 4/3/1 3/4/1
f 5/1/1 3/2/1 7/3/1 6/4/1
f 3/1/1 4/2/1 8/3/1 7/4/1
f 10/1/1 11/2/1 12/3/1 9/4/1
f 14/1/1 9/2/1 15/3/1 13/4/1
f 9/1/1 12/2/1 16/3/1 15/4/1
f 5/1/2 6/4/2 13/4/2 14/1/2
f 4/3/3 2/2/3 11/2/3 12/3/3
f 1/1/2 3/4/2 9/4/2 10/1/2
f 7/4/4 8/3/4 16/3/4 15/4/4
f 3/2/5 5/1/5 14/1/5 9/2/5
f 6/4/4 7/3/4 15/3/4 13/4/4
f 2/2/5 1/1/5 10/1/5 11/2/5
f 8/3/3 4/2/3 12/2/3 16/3/3
