# Blender 4.5.2 LTS
# www.blender.org
mtllib Level2_PlatformFace005.mtl
o Plane.005
v -20.000002 1.999999 -342.000000
v -10.000002 2.000000 -342.000000
v -19.999998 1.999999 -312.000000
v -9.999998 2.000000 -312.000000
v -20.000000 1.999999 -322.000031
v -10.000000 2.000000 -321.999969
v 0.000000 2.000000 -321.999969
v -9.999998 2.000000 -311.999969
v 0.000001 2.000000 -311.999969
vn -0.0000 1.0000 -0.0000
vt 0.000000 0.500000
vt 0.000000 1.000000
vt 1.000000 1.000000
vt 1.000000 0.500000
vt 0.000000 0.000000
vt 1.000000 0.000000
s 0
f 5/1/1 3/2/1 4/3/1 6/4/1
f 1/5/1 5/1/1 6/4/1 2/6/1
f 6/5/1 8/2/1 9/3/1 7/6/1
