# Blender 4.5.2 LTS
# www.blender.org
mtllib Level2_PlatformFace001.mtl
o Plane.009
v -80.000000 0.000000 50.000000
v -20.000000 0.000000 50.000000
v -80.000000 0.000000 10.000000
v -20.000000 0.000000 10.000000
v 40.000000 0.000000 40.000000
v -20.000000 0.000000 20.000000
v 40.000000 0.000000 20.000000
v -80.000000 0.000000 20.000000
v -80.000000 0.000000 40.000000
v -20.000000 0.000000 40.000000
vn -0.0000 1.0000 -0.0000
vt 0.000000 0.750000
vt 1.000000 0.750000
vt 1.000000 1.000000
vt 0.000000 1.000000
vt 0.000000 0.000000
vt 1.000000 0.000000
vt 1.000000 0.416667
vt 0.000000 0.416667
s 1
f 8/1/1 6/2/1 4/3/1 3/4/1
f 10/5/1 5/6/1 7/3/1 6/4/1
f 1/5/1 2/6/1 10/7/1 9/8/1
f 9/8/1 10/7/1 6/2/1 8/1/1
