# Blender 4.5.2 LTS
# www.blender.org
mtllib Level2_PlatformBase006.mtl
o Plane.007
v -10.000000 0.000000 -322.000000
v 10.000000 0.000000 -322.000000
v -10.000000 0.000000 -352.000000
v 10.000000 0.000000 -352.000000
v -10.000000 0.000000 -337.000000
v 10.000000 0.000000 -337.000000
v 10.000000 0.000000 -332.000000
v 30.000000 0.000000 -332.000000
v 10.000000 0.000000 -342.000000
v 30.000000 0.000000 -342.000000
v 30.000000 0.000000 -337.000000
v 0.000000 0.000000 -312.000031
v 10.000000 0.000000 -312.000031
v 0.000000 0.000000 -317.000031
v 10.000000 0.000000 -317.000031
v 0.000000 0.000000 -322.000000
v 0.000000 0.000000 -352.000000
v 0.000000 0.000000 -337.000000
v -10.000000 0.000000 -332.000000
v 0.000000 0.000000 -332.000000
v -10.000000 0.000000 -342.000000
v 0.000000 0.000000 -342.000000
v -10.000000 -40.500000 -332.000000
v -10.000000 -40.500000 -322.000000
v 0.000000 -40.500000 -322.000000
v 10.000000 -40.500000 -322.000000
v 0.000000 -40.500000 -352.000000
v -10.000000 -40.500000 -352.000000
v -10.000000 -40.500000 -342.000000
v -10.000000 -40.500000 -337.000000
v 0.000000 -40.500000 -337.000000
v 10.000000 -40.500000 -332.000000
v 30.000000 -40.500000 -332.000000
v 30.000000 -40.500000 -337.000000
v 30.000000 -40.500000 -342.000000
v 10.000000 -40.500000 -342.000000
v 0.000000 -40.500000 -317.000031
v 0.000000 -40.500000 -312.000031
v 10.000000 -40.500000 -312.000031
v 10.000000 -40.500000 -317.000031
v 10.000000 -40.500000 -352.000000
v 10.000000 -40.500000 -337.000000
v 0.000000 -40.500000 -332.000000
v 0.000000 -40.500000 -342.000000
vn -0.0000 1.0000 -0.0000
vn -0.0000 -0.0000 1.0000
vn 1.0000 -0.0000 -0.0000
vn -0.0000 -0.0000 -1.0000
vn -1.0000 -0.0000 -0.0000
vt 0.500000 0.666667
vt 1.000000 0.666667
vt 1.000000 1.000000
vt 0.500000 1.000000
vt 0.500000 0.333333
vt 1.000000 0.333333
vt 1.000000 0.500000
vt 0.500000 0.500000
vt 0.000000 0.500000
vt 0.000000 1.000000
vt 0.000000 0.000000
vt 1.000000 0.000000
vt 0.000000 0.333333
vt 0.000000 0.666667
vt 0.500000 0.000000
s 0
f 22/1/1 9/2/1 4/3/1 17/4/1
f 20/5/1 7/6/1 6/7/1 18/8/1
f 6/9/1 11/7/1 10/3/1 9/10/1
f 7/11/1 8/12/1 11/7/1 6/9/1
f 14/9/1 15/7/1 2/3/1 16/10/1
f 12/11/1 13/12/1 15/7/1 14/9/1
f 19/13/1 20/5/1 18/8/1 5/9/1
f 21/14/1 22/1/1 17/4/1 3/10/1
f 1/11/1 16/15/1 20/5/1 19/13/1
f 16/15/1 2/12/1 7/6/1 20/5/1
f 5/9/1 18/8/1 22/1/1 21/14/1
f 18/8/1 6/7/1 9/2/1 22/1/1
f 44/1/1 36/2/1 41/3/1 27/4/1
f 43/5/1 32/6/1 42/7/1 31/8/1
f 42/9/1 34/7/1 35/3/1 36/10/1
f 32/11/1 33/12/1 34/7/1 42/9/1
f 37/9/1 40/7/1 26/3/1 25/10/1
f 38/11/1 39/12/1 40/7/1 37/9/1
f 23/13/1 43/5/1 31/8/1 30/9/1
f 29/14/1 44/1/1 27/4/1 28/10/1
f 24/11/1 25/15/1 43/5/1 23/13/1
f 25/15/1 26/12/1 32/6/1 43/5/1
f 30/9/1 31/8/1 44/1/1 29/14/1
f 31/8/1 42/7/1 36/2/1 44/1/1
f 8/12/2 7/11/2 32/11/2 33/12/2
f 16/15/2 1/11/2 24/11/2 25/15/2
f 10/3/3 11/7/3 34/7/3 35/3/3
f 2/3/3 15/7/3 40/7/3 26/3/3
f 17/4/4 4/3/4 41/3/4 27/4/4
f 4/3/3 9/2/3 36/2/3 41/3/3
f 9/10/4 10/3/4 35/3/4 36/10/4
f 14/9/5 16/10/5 25/10/5 37/9/5
f 1/11/5 19/13/5 23/13/5 24/11/5
f 7/6/3 2/12/3 26/12/3 32/6/3
f 11/7/3 8/12/3 33/12/3 34/7/3
f 19/13/5 5/9/5 30/9/5 23/13/5
f 12/11/5 14/9/5 37/9/5 38/11/5
f 3/10/4 17/4/4 27/4/4 28/10/4
f 13/12/2 12/11/2 38/11/2 39/12/2
f 5/9/5 21/14/5 29/14/5 30/9/5
f 15/7/3 13/12/3 39/12/3 40/7/3
f 21/14/5 3/10/5 28/10/5 29/14/5
