# Blender 4.3.2
# www.blender.org
o HIPERLASER.002
v -0.837541 -0.522714 0.837546
v -0.760660 0.224559 0.760665
v -0.837541 -0.522714 -0.837537
v -0.760660 0.224559 -0.760655
v 0.837541 -0.522714 0.837546
v 0.760660 0.224559 0.760665
v 0.837541 -0.522714 -0.837537
v 0.760660 0.224559 -0.760656
v -1.184462 -0.522714 0.000005
v -1.048180 0.307590 0.000005
v 1.184462 -0.522714 0.000005
v 1.048180 0.307590 0.000005
v -0.000000 -0.522714 -1.184458
v -0.000000 0.307590 -1.048176
v -0.000000 -0.522714 1.184467
v -0.000000 0.307590 1.048186
v -0.000000 0.473650 0.000005
v -1.093040 -0.522714 -0.452747
v -1.201812 -0.045289 0.000005
v -0.942185 0.293367 -0.449759
v -0.806634 -0.056053 -0.806630
v 0.452752 -0.522714 -1.093036
v -0.000000 -0.045290 -1.201807
v 0.449764 0.293367 -0.942180
v 0.806634 -0.056053 -0.806630
v 1.093040 -0.522714 0.452757
v 1.201812 -0.045289 0.000005
v 0.942185 0.293367 0.449769
v 0.806634 -0.056053 0.806639
v -0.452752 -0.522714 1.093045
v -0.000000 -0.045289 1.201817
v -0.449764 0.293367 0.942190
v -0.806634 -0.056053 0.806639
v 0.452752 -0.522714 1.093045
v -0.000000 0.452893 0.609586
v -0.609581 0.452893 0.000005
v -0.942185 0.293367 0.449769
v -0.000000 0.452893 -0.609576
v -0.449764 0.293367 -0.942180
v 1.093040 -0.522714 -0.452747
v 0.942185 0.293367 -0.449759
v -1.093040 -0.522714 0.452757
v -0.452752 -0.522714 -1.093036
v 0.609581 0.452893 0.000005
v 0.449764 0.293367 0.942190
v -1.086897 -0.047980 -0.430243
v 0.430247 -0.047980 -1.086893
v 1.086897 -0.047980 0.430252
v -0.430247 -0.047980 1.086902
v -0.546823 0.432904 0.546828
v -0.546823 0.432904 -0.546818
v 1.086897 -0.047980 -0.430243
v -1.086897 -0.047980 0.430252
v 0.546823 0.432904 -0.546818
v 0.546823 0.432904 0.546828
v 0.430247 -0.047980 1.086902
v -0.430247 -0.047980 -1.086893
vn -1.0000 -0.0062 -0.0000
vn -0.9818 0.1899 -0.0000
vn -0.9000 0.1813 -0.3965
vn -0.9101 0.0308 -0.4133
vn -0.9212 0.3892 -0.0000
vn -0.8521 0.3238 -0.4112
vn -0.6812 0.2684 -0.6812
vn -0.6974 0.1654 -0.6974
vn -0.7056 0.0657 -0.7056
vn -0.0000 -0.0062 -1.0000
vn -0.0000 0.1899 -0.9818
vn 0.3965 0.1813 -0.9000
vn 0.4133 0.0308 -0.9101
vn -0.0000 0.3892 -0.9212
vn 0.4112 0.3238 -0.8521
vn 0.6812 0.2684 -0.6812
vn 0.6974 0.1654 -0.6974
vn 0.7056 0.0657 -0.7056
vn 1.0000 -0.0062 -0.0000
vn 0.9818 0.1899 -0.0000
vn 0.9000 0.1813 0.3965
vn 0.9101 0.0308 0.4133
vn 0.9212 0.3892 -0.0000
vn 0.8521 0.3238 0.4112
vn 0.6812 0.2684 0.6812
vn 0.6974 0.1654 0.6974
vn 0.7056 0.0657 0.7056
vn -0.0000 -0.0062 1.0000
vn -0.0000 0.1899 0.9818
vn -0.3965 0.1813 0.9000
vn -0.4133 0.0308 0.9101
vn -0.0000 0.3892 0.9212
vn -0.4112 0.3238 0.8521
vn -0.6812 0.2684 0.6812
vn -0.6974 0.1654 0.6974
vn -0.7056 0.0657 0.7056
vn -0.0000 1.0000 -0.0000
vn -0.1967 0.9805 -0.0000
vn -0.2243 0.9483 0.2243
vn -0.0000 0.9805 0.1967
vn -0.3324 0.9431 -0.0000
vn -0.3581 0.9139 0.1910
vn -0.4012 0.8235 0.4012
vn -0.1910 0.9139 0.3581
vn -0.0000 0.9431 0.3324
vn -0.0000 0.9431 -0.3324
vn -0.1910 0.9139 -0.3581
vn -0.2243 0.9483 -0.2243
vn -0.0000 0.9805 -0.1967
vn -0.4012 0.8235 -0.4012
vn -0.3581 0.9139 -0.1910
vn 0.9000 0.1813 -0.3965
vn 0.9101 0.0308 -0.4133
vn 0.8521 0.3238 -0.4112
vn -0.9000 0.1813 0.3965
vn -0.9101 0.0308 0.4133
vn -0.8521 0.3238 0.4112
vn 0.4012 0.8235 -0.4012
vn 0.1910 0.9139 -0.3581
vn 0.2243 0.9483 -0.2243
vn 0.3581 0.9139 -0.1910
vn 0.1967 0.9805 -0.0000
vn 0.3324 0.9431 -0.0000
vn 0.2243 0.9483 0.2243
vn 0.3581 0.9139 0.1910
vn 0.1910 0.9139 0.3581
vn 0.4012 0.8235 0.4012
vn 0.3965 0.1813 0.9000
vn 0.4133 0.0308 0.9101
vn 0.4112 0.3238 0.8521
vn -0.3965 0.1813 -0.9000
vn -0.4133 0.0308 -0.9101
vn -0.4112 0.3238 -0.8521
vt 0.782515 0.000230
vt 0.799128 0.008647
vt 0.785356 0.056660
vt 0.767816 0.050940
vt 0.815741 0.017063
vt 0.802313 0.062285
vt 0.788884 0.107506
vt 0.773922 0.105060
vt 0.753116 0.101650
vt 0.745083 0.203977
vt 0.765880 0.203977
vt 0.767944 0.253628
vt 0.749100 0.255140
vt 0.782737 0.203977
vt 0.785811 0.252212
vt 0.788884 0.300447
vt 0.773922 0.302894
vt 0.753116 0.306303
vt 0.712355 0.408563
vt 0.695639 0.400363
vt 0.708584 0.352115
vt 0.726449 0.357527
vt 0.678922 0.392163
vt 0.691330 0.346791
vt 0.703737 0.301418
vt 0.719092 0.303517
vt 0.740542 0.306491
vt 0.744623 0.204396
vt 0.725434 0.204396
vt 0.723989 0.154661
vt 0.742583 0.153349
vt 0.708780 0.204396
vt 0.706259 0.155885
vt 0.703737 0.107374
vt 0.719092 0.105275
vt 0.740542 0.102301
vt 0.739586 0.887691
vt 0.718262 0.836211
vt 0.767339 0.820690
vt 0.791066 0.866367
vt 0.693161 0.775612
vt 0.739586 0.775612
vt 0.786011 0.775612
vt 0.818838 0.808439
vt 0.851665 0.841266
vt 0.627506 0.934116
vt 0.627506 0.887691
vt 0.672585 0.859939
vt 0.688105 0.909015
vt 0.627506 0.841266
vt 0.660334 0.808439
vt 0.785356 0.351293
vt 0.767816 0.357014
vt 0.802313 0.345669
vt 0.815741 0.390890
vt 0.799128 0.399307
vt 0.782515 0.407724
vt 0.708584 0.056678
vt 0.726449 0.051266
vt 0.691330 0.062002
vt 0.678922 0.016630
vt 0.695639 0.008430
vt 0.712355 0.000230
vt 0.693161 0.999770
vt 0.660334 0.966943
vt 0.711833 0.954692
vt 0.739586 0.999770
vt 0.760910 0.939171
vt 0.786011 0.999770
vt 0.806587 0.915444
vt 0.818838 0.966943
vt 0.851665 0.887691
vt 0.851665 0.934116
vt 0.723989 0.254132
vt 0.742583 0.255444
vt 0.706259 0.252907
vt 0.767944 0.154326
vt 0.749100 0.152814
vt 0.785811 0.155742
s 1
f 9/1/1 19/2/2 46/3/3 18/4/4
f 19/2/2 10/5/5 20/6/6 46/3/3
f 46/3/3 20/6/6 4/7/7 21/8/8
f 18/4/4 46/3/3 21/8/8 3/9/9
f 13/10/10 23/11/11 47/12/12 22/13/13
f 23/11/11 14/14/14 24/15/15 47/12/12
f 47/12/12 24/15/15 8/16/16 25/17/17
f 22/13/13 47/12/12 25/17/17 7/18/18
f 11/19/19 27/20/20 48/21/21 26/22/22
f 27/20/20 12/23/23 28/24/24 48/21/21
f 48/21/21 28/24/24 6/25/25 29/26/26
f 26/22/22 48/21/21 29/26/26 5/27/27
f 15/28/28 31/29/29 49/30/30 30/31/31
f 31/29/29 16/32/32 32/33/33 49/30/30
f 49/30/30 32/33/33 2/34/34 33/35/35
f 30/31/31 49/30/30 33/35/35 1/36/36
f 17/37/37 36/38/38 50/39/39 35/40/40
f 36/38/38 10/41/41 37/42/42 50/39/39
f 50/39/39 37/42/42 2/43/43 32/44/44
f 35/40/40 50/39/39 32/44/44 16/45/45
f 14/46/46 39/47/47 51/48/48 38/49/49
f 39/47/47 4/50/50 20/51/51 51/48/48
f 51/48/48 20/51/51 10/41/41 36/38/38
f 38/49/49 51/48/48 36/38/38 17/37/37
f 7/18/18 25/17/17 52/52/52 40/53/53
f 25/17/17 8/16/16 41/54/54 52/52/52
f 52/52/52 41/54/54 12/55/23 27/56/20
f 40/53/53 52/52/52 27/56/20 11/57/19
f 1/36/36 33/35/35 53/58/55 42/59/56
f 33/35/35 2/34/34 37/60/57 53/58/55
f 53/58/55 37/60/57 10/61/5 19/62/2
f 42/59/56 53/58/55 19/62/2 9/63/1
f 8/64/58 24/65/59 54/66/60 41/67/61
f 24/65/59 14/46/46 38/49/49 54/66/60
f 54/66/60 38/49/49 17/37/37 44/68/62
f 41/67/61 54/66/60 44/68/62 12/69/63
f 12/69/63 44/68/62 55/70/64 28/71/65
f 44/68/62 17/37/37 35/40/40 55/70/64
f 55/70/64 35/40/40 16/45/45 45/72/66
f 28/71/65 55/70/64 45/72/66 6/73/67
f 5/27/27 29/26/26 56/74/68 34/75/69
f 29/26/26 6/25/25 45/76/70 56/74/68
f 56/74/68 45/76/70 16/32/32 31/29/29
f 34/75/69 56/74/68 31/29/29 15/28/28
f 3/9/9 21/8/8 57/77/71 43/78/72
f 21/8/8 4/7/7 39/79/73 57/77/71
f 57/77/71 39/79/73 14/14/14 23/11/11
f 43/78/72 57/77/71 23/11/11 13/10/10
