# ProBuilder 6.0.4
# https://unity3d.com/unity/features/worldbuilding/probuilder
# 25/05/2025 18:21:25

mtllib ./TestPlane4.mtl
o TestPlane4

g Plane
v -53.91192 6.02 -49.07604
v -53.91192 6.02 -43.04151
v -63.54723 6.02 -49.07604
v -63.54723 6.02 -43.04151
v -53.91192 6.02 -37.00698
v -63.54723 6.02 -37.00698
v -73.18253 11.62134 -49.07604
v -73.18253 11.62134 -43.04151
v -73.18253 11.62134 -37.00698

vt -5.262238 -6.034533
vt -5.262238 0
vt 4.373066 -6.034533
vt 4.373066 0
vt -5.262238 6.034533
vt 4.373066 6.034533
vt 3.780645 -6.034533
vt 3.780645 0
vt 14.92578 -6.034531
vt 14.92578 0
vt 3.780645 6.034533
vt 14.92578 6.034531

vn 0 1 0
vn 0.5025818 0.8645296 0

usemtl ProBuilderDefault
f 3/3/1 4/4/1 2/2/1 1/1/1
f 4/4/1 6/6/1 5/5/1 2/2/1
f 7/9/2 8/10/2 4/8/2 3/7/2
f 8/10/2 9/12/2 6/11/2 4/8/2

