# Blender 4.3.2
# www.blender.org
o Cube.001
v -0.024285 -4.546074 1.915876
v -0.024285 0.003643 1.915876
v -0.024285 -4.546074 1.862726
v -0.024285 0.003643 1.862726
v 0.028866 -4.546074 1.915876
v 0.028866 0.003643 1.915876
v 0.028866 -4.546074 1.862726
v 0.028866 0.003643 1.862726
vn -1.0000 -0.0000 -0.0000
vn -0.0000 -0.0000 -1.0000
vn 1.0000 -0.0000 -0.0000
vn -0.0000 -0.0000 1.0000
vn -0.0000 -1.0000 -0.0000
vn -0.0000 1.0000 -0.0000
vt 0.425383 0.396307
vt 0.425383 0.622602
vt 0.422929 0.622602
vt 0.422929 0.396307
vt 0.420476 0.622602
vt 0.420476 0.396307
vt 0.430290 0.396307
vt 0.430290 0.622602
vt 0.427836 0.622602
vt 0.427836 0.396307
vt 0.106363 0.465768
vt 0.103909 0.465768
vt 0.103909 0.463315
vt 0.106363 0.463315
vt 0.106363 0.469606
vt 0.103909 0.469606
vt 0.103909 0.467152
vt 0.106363 0.467152
s 1
f 1/1/1 2/2/1 4/3/1 3/4/1
f 3/4/2 4/3/2 8/5/2 7/6/2
f 7/7/3 8/8/3 6/9/3 5/10/3
f 5/10/4 6/9/4 2/2/4 1/1/4
f 3/11/5 7/12/5 5/13/5 1/14/5
f 8/15/6 4/16/6 2/17/6 6/18/6
