# Blender 4.3.2
# www.blender.org
o Cube.002
v -1.330931 -7.354043 3.830302
v -1.330931 -7.179065 3.830302
v -1.330931 -7.354043 -0.051700
v -1.330931 -7.179066 -0.051700
v 1.315978 -7.354043 3.830302
v 1.315978 -7.179065 3.830302
v 1.315978 -7.354043 -0.051700
v 1.315978 -7.179066 -0.051700
v -1.155787 -7.256758 3.575066
v -1.010161 -7.081779 3.412293
v -1.155787 -7.256759 0.203714
v -1.010161 -7.081779 0.366487
v 1.142940 -7.256758 3.575066
v 0.997313 -7.081779 3.412293
v 1.142940 -7.256759 0.203714
v 0.997313 -7.081779 0.366487
v -1.124272 -7.081779 3.528844
v -1.124272 -7.081779 0.249935
v 1.111425 -7.081779 0.249935
v 1.111425 -7.081779 3.528844
v -1.155787 -7.256759 1.107233
v -1.155787 -7.256759 2.671547
v -1.124272 -7.081779 2.719192
v -1.124272 -7.081779 1.059587
v 1.142940 -7.256759 2.671547
v 1.142940 -7.256759 1.107233
v 1.111425 -7.081779 1.059587
v 1.111425 -7.081779 2.719192
v -1.010161 -7.081779 2.724272
v -1.010161 -7.081779 1.054507
v 0.997313 -7.081779 1.054507
v 0.997313 -7.081779 2.724272
v -1.155787 -7.081779 1.107233
v -1.155787 -7.081779 0.203714
v 1.142940 -7.081779 0.203714
v 1.142940 -7.081779 2.671547
v 1.142940 -7.081779 3.575066
v -1.155787 -7.081779 3.575066
v -0.978645 -7.081779 1.099347
v -0.978645 -7.081779 0.463514
v 0.965798 -7.081779 0.463514
v 0.965798 -7.081779 2.679433
v 0.965798 -7.081779 3.315266
v -0.978645 -7.081779 3.315266
v -1.155787 -7.081779 2.671547
v 1.142940 -7.081779 1.107233
v -0.978645 -7.081779 2.679433
v 0.965798 -7.081779 1.099347
v -1.124272 -6.189409 3.528844
v -1.010161 -6.189409 3.412293
v -1.010161 -6.189410 0.366487
v -1.124272 -6.189410 0.249935
v 0.997313 -6.189410 0.366487
v 1.111425 -6.189410 0.249935
v 0.997313 -6.189409 3.412293
v 1.111425 -6.189409 3.528844
v -1.124272 -6.189410 1.059587
v 1.111425 -6.189410 2.719192
v -1.010161 -6.189410 1.054507
v 0.997313 -6.189410 2.724272
v -1.124272 -6.189410 2.719192
v 1.111425 -6.189410 1.059587
v -1.010161 -6.189410 2.724272
v 0.997313 -6.189410 1.054507
v -0.110933 -4.805286 1.992757
v -0.110933 -4.081156 1.992757
v -0.110933 -4.805286 1.785845
v -0.110933 -4.081156 1.785845
v 0.095980 -4.805286 1.992757
v 0.095980 -4.081156 1.992757
v 0.095980 -4.805286 1.785845
v 0.095980 -4.081156 1.785845
v -1.006346 -6.252435 3.488702
v -1.006346 -6.252435 3.430456
v -0.948100 -6.252435 3.488702
v -1.006346 -6.252435 3.546948
v -1.064593 -6.252435 3.488702
v -0.008330 -4.756602 1.877460
v -0.008330 -4.720541 1.923201
v 0.049917 -4.720541 1.923201
v -0.008330 -4.684480 1.968942
v -0.066576 -4.720541 1.923201
v 0.993499 -6.252435 3.488702
v 0.993499 -6.252435 3.430456
v 0.935253 -6.252435 3.488702
v 0.993499 -6.252435 3.546948
v 1.051746 -6.252435 3.488702
v -0.004518 -4.756602 1.877460
v -0.004518 -4.720541 1.923201
v -0.062764 -4.720541 1.923201
v -0.004518 -4.684480 1.968942
v 0.053729 -4.720541 1.923201
v -1.006346 -6.252436 0.290077
v -1.006346 -6.252436 0.348324
v -0.948100 -6.252436 0.290077
v -1.006346 -6.252436 0.231831
v -1.064593 -6.252436 0.290077
v -0.008330 -4.756602 1.901319
v -0.008330 -4.720541 1.855578
v 0.049917 -4.720541 1.855578
v -0.008330 -4.684480 1.809838
v -0.066576 -4.720541 1.855578
v 0.993499 -6.252436 0.290077
v 0.993499 -6.252436 0.348324
v 0.935253 -6.252436 0.290077
v 0.993499 -6.252436 0.231831
v 1.051746 -6.252436 0.290077
v -0.004518 -4.756602 1.901319
v -0.004518 -4.720541 1.855578
v -0.062764 -4.720541 1.855578
v -0.004518 -4.684480 1.809838
v 0.053729 -4.720541 1.855578
vn -1.0000 -0.0000 -0.0000
vn -0.0000 -0.0000 -1.0000
vn 1.0000 -0.0000 -0.0000
vn -0.0000 -0.0000 1.0000
vn -0.0000 -1.0000 -0.0000
vn -0.0000 1.0000 -0.0000
vn 0.0445 -0.0000 0.9990
vn 0.0445 -0.0000 -0.9990
vn -0.0445 -0.0000 0.9990
vn -0.0445 -0.0000 -0.9990
vn 0.6867 0.2500 0.6826
vn -0.5613 0.7391 0.3724
vn -0.6867 -0.2503 -0.6825
vn -0.0000 0.7853 -0.6191
vn 0.5576 -0.7449 -0.3663
vn -0.6867 0.2500 0.6826
vn 0.5613 0.7391 0.3725
vn 0.6867 -0.2503 -0.6825
vn -0.5576 -0.7449 -0.3663
vn 0.6867 0.2500 -0.6826
vn -0.5613 0.7391 -0.3724
vn -0.6867 -0.2503 0.6825
vn -0.0000 0.7853 0.6191
vn 0.5576 -0.7449 0.3663
vn -0.6867 0.2500 -0.6826
vn 0.5613 0.7391 -0.3725
vn 0.6867 -0.2503 0.6825
vn -0.5576 -0.7449 0.3663
vt 0.235715 0.733341
vt 0.239742 0.729263
vt 0.239813 0.917394
vt 0.235761 0.913317
vt 0.109278 0.918902
vt 0.113305 0.914074
vt 0.109278 0.728541
vt 0.113307 0.732611
vt 0.582865 0.708816
vt 0.700236 0.708816
vt 0.700236 0.880954
vt 0.582865 0.880954
vt 0.862786 0.045979
vt 0.854391 0.045412
vt 0.859989 0.000692
vt 0.863765 0.004915
vt 0.971304 0.001298
vt 0.967536 0.005559
vt 0.969614 0.119108
vt 0.977867 0.119062
vt 0.977957 0.161806
vt 0.969679 0.161823
vt 0.969762 0.171014
vt 0.859393 0.164318
vt 0.863449 0.160152
vt 0.862796 0.119070
vt 0.862439 0.284879
vt 0.950782 0.284879
vt 0.950782 0.313767
vt 0.862439 0.313767
vt 0.858490 0.684076
vt 0.858490 0.582501
vt 0.899033 0.582501
vt 0.899033 0.684076
vt 0.917176 0.582501
vt 0.953961 0.582501
vt 0.953961 0.623044
vt 0.917176 0.623044
vt 0.858490 0.579313
vt 0.858721 0.574129
vt 0.899224 0.575932
vt 0.898993 0.581117
vt 0.917182 0.778051
vt 0.953967 0.778051
vt 0.953967 0.818594
vt 0.917182 0.818594
vt 0.899033 0.685460
vt 0.899033 0.776667
vt 0.858490 0.776667
vt 0.858490 0.685460
vt 0.862439 0.213090
vt 0.854391 0.284520
vt 0.854391 0.213448
vt 0.858721 0.383569
vt 0.858490 0.378384
vt 0.898993 0.376581
vt 0.899224 0.381766
vt 0.950782 0.213090
vt 0.958830 0.213448
vt 0.958830 0.284520
vt 0.862439 0.184202
vt 0.950782 0.184202
vt 0.968846 0.046042
vt 0.977155 0.045415
vt 0.854391 0.119580
vt 0.957398 0.211283
vt 0.957398 0.174498
vt 0.958830 0.172398
vt 0.855823 0.174498
vt 0.854391 0.172398
vt 0.855823 0.286685
vt 0.855823 0.323470
vt 0.854391 0.325570
vt 0.957398 0.323470
vt 0.958830 0.325570
vt 0.952214 0.179793
vt 0.952214 0.211053
vt 0.861007 0.179793
vt 0.861007 0.318175
vt 0.861007 0.286916
vt 0.952214 0.318175
vt 0.957398 0.286685
vt 0.855823 0.211283
vt 0.952214 0.286916
vt 0.861007 0.211053
vt 0.930483 0.575932
vt 0.935778 0.581117
vt 0.930483 0.484726
vt 0.935779 0.479541
vt 0.899224 0.472973
vt 0.930483 0.472973
vt 0.935778 0.478157
vt 0.898993 0.478157
vt 0.930483 0.381766
vt 0.935779 0.376581
vt 0.899224 0.484725
vt 0.898993 0.479541
vt 0.917176 0.624428
vt 0.953961 0.624428
vt 0.953961 0.664972
vt 0.917176 0.664972
vt 0.917182 0.819978
vt 0.953967 0.819978
vt 0.953967 0.860522
vt 0.917182 0.860522
vt 0.074341 0.898919
vt 0.105600 0.898919
vt 0.105600 0.939462
vt 0.074341 0.939462
vt 0.290836 0.830117
vt 0.290836 0.728541
vt 0.331379 0.728541
vt 0.331379 0.830117
vt 0.917190 0.685463
vt 0.948449 0.685463
vt 0.948449 0.726007
vt 0.917190 0.726007
vt 0.290836 0.915917
vt 0.322095 0.915917
vt 0.322095 0.956460
vt 0.290836 0.956460
vt 0.858721 0.486528
vt 0.858490 0.481344
vt 0.858490 0.869257
vt 0.858490 0.778051
vt 0.899033 0.778051
vt 0.899033 0.869257
vt 0.858490 0.476354
vt 0.858721 0.471169
vt 0.917190 0.727391
vt 0.948449 0.727391
vt 0.948449 0.767935
vt 0.917190 0.767935
vt 0.180224 0.938806
vt 0.147816 0.938806
vt 0.147816 0.929546
vt 0.180224 0.929546
vt 0.147816 0.920286
vt 0.180224 0.920286
vt 0.180224 0.957326
vt 0.147816 0.957326
vt 0.147816 0.948066
vt 0.180224 0.948066
vt 0.415385 0.724692
vt 0.406125 0.724692
vt 0.406125 0.715432
vt 0.415385 0.715432
vt 0.701238 0.706179
vt 0.691978 0.706179
vt 0.691978 0.696918
vt 0.701238 0.696918
vt 0.105650 0.455326
vt 0.107390 0.453586
vt 0.107390 0.457066
vt 0.421420 0.725687
vt 0.420476 0.623986
vt 0.423714 0.625264
vt 0.423734 0.728287
vt 0.103909 0.457066
vt 0.427116 0.625999
vt 0.427166 0.727705
vt 0.103909 0.453586
vt 0.430341 0.624690
vt 0.429455 0.725083
vt 0.105650 0.460191
vt 0.103909 0.461931
vt 0.103909 0.458450
vt 0.107390 0.461931
vt 0.107390 0.458450
vt 0.433749 0.623986
vt 0.432882 0.725688
s 1
f 1/1/1 2/2/1 4/3/1 3/4/1
f 3/4/2 4/3/2 8/5/2 7/6/2
f 7/6/3 8/5/3 6/7/3 5/8/3
f 5/8/4 6/7/4 2/2/4 1/1/4
f 3/4/5 7/6/5 5/8/5 1/1/5
f 8/9/6 4/10/6 2/11/6 6/12/6
f 21/13/1 33/14/1 34/15/1 11/16/1
f 11/16/2 34/15/2 35/17/2 15/18/2
f 25/19/3 36/20/3 37/21/3 13/22/3
f 13/22/4 37/23/4 38/24/4 9/25/4
f 22/26/5 25/19/5 13/22/5 9/25/5
f 42/27/6 47/28/6 44/29/6 43/30/6
f 19/31/2 18/32/2 52/33/2 54/34/2
f 23/35/1 17/36/1 49/37/1 61/38/1
f 24/39/7 30/40/7 59/41/7 57/42/7
f 18/43/1 24/44/1 57/45/1 52/46/1
f 14/47/2 10/48/2 50/49/2 55/50/2
f 48/51/6 42/27/6 36/52/6 46/53/6
f 29/54/8 23/55/8 61/56/8 63/57/8
f 47/28/6 39/58/6 33/59/6 45/60/6
f 41/61/6 40/62/6 39/58/6 48/51/6
f 48/51/6 39/58/6 47/28/6 42/27/6
f 11/16/5 15/18/5 26/63/5 21/13/5
f 21/13/5 26/63/5 25/19/5 22/26/5
f 15/18/3 35/17/3 46/64/3 26/63/3
f 26/63/3 46/64/3 36/20/3 25/19/3
f 9/25/1 38/24/1 45/65/1 22/26/1
f 22/26/1 45/65/1 33/14/1 21/13/1
f 24/66/6 18/67/6 34/68/6 33/59/6
f 18/67/6 19/69/6 35/70/6 34/68/6
f 28/71/6 20/72/6 37/73/6 36/52/6
f 20/72/6 17/74/6 38/75/6 37/73/6
f 12/76/6 30/77/6 39/58/6 40/62/6
f 16/78/6 12/76/6 40/62/6 41/61/6
f 14/79/6 32/80/6 42/27/6 43/30/6
f 10/81/6 14/79/6 43/30/6 44/29/6
f 17/74/6 23/82/6 45/60/6 38/75/6
f 19/69/6 27/83/6 46/53/6 35/70/6
f 29/84/6 10/81/6 44/29/6 47/28/6
f 31/85/6 16/78/6 41/61/6 48/51/6
f 27/83/6 31/85/6 48/51/6 46/53/6
f 32/80/6 28/71/6 36/52/6 42/27/6
f 23/82/6 29/84/6 47/28/6 45/60/6
f 30/77/6 24/66/6 33/59/6 39/58/6
f 59/41/6 51/86/6 52/87/6 57/42/6
f 51/86/6 53/88/6 54/89/6 52/87/6
f 60/90/6 55/91/6 56/92/6 58/93/6
f 55/91/6 50/94/6 49/95/6 56/92/6
f 53/88/6 64/96/6 62/97/6 54/89/6
f 50/94/6 63/57/6 61/56/6 49/95/6
f 27/98/3 19/99/3 54/100/3 62/101/3
f 20/102/3 28/103/3 58/104/3 56/105/3
f 10/106/3 29/107/3 63/108/3 50/109/3
f 17/110/4 20/111/4 56/112/4 49/113/4
f 16/114/1 31/115/1 64/116/1 53/117/1
f 30/118/3 12/119/3 51/120/3 59/121/3
f 31/122/9 27/123/9 62/97/9 64/96/9
f 12/124/4 16/125/4 53/126/4 51/127/4
f 28/128/10 32/129/10 60/90/10 58/93/10
f 32/130/1 14/131/1 55/132/1 60/133/1
f 65/134/1 66/135/1 68/136/1 67/137/1
f 67/137/2 68/136/2 72/138/2 71/139/2
f 71/140/3 72/141/3 70/142/3 69/143/3
f 69/143/4 70/142/4 66/135/4 65/134/4
f 67/144/5 71/145/5 69/146/5 65/147/5
f 72/148/6 68/149/6 66/150/6 70/151/6
f 73/152/5 74/153/5 75/154/5
f 75/155/11 80/156/11 81/157/11 76/158/11
f 73/152/5 75/154/5 76/159/5
f 76/158/12 81/157/12 82/160/12 77/161/12
f 73/152/5 76/159/5 77/162/5
f 77/161/13 82/160/13 78/163/13 74/164/13
f 73/152/5 77/162/5 74/153/5
f 79/165/14 80/166/14 78/167/14
f 79/165/14 81/168/14 80/166/14
f 79/165/14 82/169/14 81/168/14
f 79/165/14 78/167/14 82/169/14
f 74/164/15 78/163/15 80/170/15 75/171/15
f 83/152/5 85/154/5 84/153/5
f 85/155/16 86/158/16 91/157/16 90/156/16
f 83/152/5 86/159/5 85/154/5
f 86/158/17 87/161/17 92/160/17 91/157/17
f 83/152/5 87/162/5 86/159/5
f 87/161/18 84/164/18 88/163/18 92/160/18
f 83/152/5 84/153/5 87/162/5
f 89/165/14 88/167/14 90/166/14
f 89/165/14 90/166/14 91/168/14
f 89/165/14 91/168/14 92/169/14
f 89/165/14 92/169/14 88/167/14
f 84/164/19 85/171/19 90/170/19 88/163/19
f 93/152/5 95/154/5 94/153/5
f 95/155/20 96/158/20 101/157/20 100/156/20
f 93/152/5 96/159/5 95/154/5
f 96/158/21 97/161/21 102/160/21 101/157/21
f 93/152/5 97/162/5 96/159/5
f 97/161/22 94/164/22 98/163/22 102/160/22
f 93/152/5 94/153/5 97/162/5
f 99/165/23 98/167/23 100/166/23
f 99/165/23 100/166/23 101/168/23
f 99/165/23 101/168/23 102/169/23
f 99/165/23 102/169/23 98/167/23
f 94/164/24 95/171/24 100/170/24 98/163/24
f 103/152/5 104/153/5 105/154/5
f 105/155/25 110/156/25 111/157/25 106/158/25
f 103/152/5 105/154/5 106/159/5
f 106/158/26 111/157/26 112/160/26 107/161/26
f 103/152/5 106/159/5 107/162/5
f 107/161/27 112/160/27 108/163/27 104/164/27
f 103/152/5 107/162/5 104/153/5
f 109/165/23 110/166/23 108/167/23
f 109/165/23 111/168/23 110/166/23
f 109/165/23 112/169/23 111/168/23
f 109/165/23 108/167/23 112/169/23
f 104/164/28 108/163/28 110/170/28 105/171/28
