# Blender 4.4.3
# www.blender.org
o Cerca_Dupla
v -0.237649 -0.171356 8.694282
v -0.237649 6.828176 8.694282
v -0.237649 -0.171356 8.218984
v -0.237649 6.828176 8.218984
v 0.237649 -0.171356 8.694282
v 0.237649 6.828176 8.694282
v 0.237649 -0.171356 8.218984
v 0.237649 6.828176 8.218984
v -0.237649 -0.171357 0.964129
v -0.237649 6.828174 0.964128
v -0.237649 -0.171357 1.439427
v -0.237649 6.828174 1.439426
v 0.237649 -0.171357 0.964129
v 0.237649 6.828174 0.964128
v 0.237649 -0.171357 1.439427
v 0.237649 6.828174 1.439426
v 0.211728 6.198785 11.011947
v 0.211728 6.523290 -0.019549
v 0.211728 5.723487 11.011947
v 0.211728 6.047992 -0.019549
v 0.687026 6.198785 11.011947
v 0.687026 6.523290 -0.019549
v 0.687026 5.723487 11.011947
v 0.687026 6.047992 -0.019549
v 0.211728 4.675939 11.011947
v 0.211728 4.594954 -0.019549
v 0.211728 4.200641 11.011947
v 0.211728 4.119656 -0.019549
v 0.687026 4.675939 11.011947
v 0.687026 4.594954 -0.019549
v 0.687026 4.200641 11.011947
v 0.687026 4.119656 -0.019549
v -0.237649 -0.171359 -8.694282
v -0.237649 6.828174 -8.694283
v -0.237649 -0.171359 -8.218984
v -0.237649 6.828174 -8.218986
v 0.237649 -0.171359 -8.694282
v 0.237649 6.828174 -8.694283
v 0.237649 -0.171359 -8.218984
v 0.237649 6.828174 -8.218986
v -0.237649 -0.171357 -0.964129
v -0.237649 6.828174 -0.964129
v -0.237649 -0.171357 -1.439427
v -0.237649 6.828174 -1.439427
v 0.237649 -0.171357 -0.964129
v 0.237649 6.828174 -0.964129
v 0.237649 -0.171357 -1.439427
v 0.237649 6.828174 -1.439427
v 0.211728 6.630390 -11.011947
v 0.211728 6.155092 -11.011947
v 0.687026 6.630390 -11.011947
v 0.687026 6.155092 -11.011947
v 0.211728 4.944947 -11.011947
v 0.211728 4.469648 -11.011947
v 0.687026 4.944947 -11.011947
v 0.687026 4.469648 -11.011947
vn -1.0000 -0.0000 -0.0000
vn -0.0000 -0.0000 -1.0000
vn 1.0000 -0.0000 -0.0000
vn -0.0000 -0.0000 1.0000
vn -0.0000 1.0000 -0.0000
vn -0.0000 -0.9996 -0.0294
vn -0.0000 0.9996 0.0294
vn -0.0000 -1.0000 0.0073
vn -0.0000 1.0000 -0.0073
vn -0.0000 -1.0000 -0.0097
vn -0.0000 1.0000 0.0097
vn -0.0000 -0.9995 -0.0318
vn -0.0000 0.9995 0.0318
vt 0.348039 0.839510
vt 0.646749 0.839510
vt 0.646749 0.859794
vt 0.348039 0.859794
vt 0.348039 0.778659
vt 0.646749 0.778659
vt 0.646749 0.798943
vt 0.348039 0.798943
vt 0.646749 0.819227
vt 0.348039 0.819227
vt 0.667033 0.798943
vt 0.667033 0.819227
vt 0.009682 0.759296
vt 0.009682 0.739013
vt 0.308392 0.739013
vt 0.308392 0.759296
vt 0.009682 0.718729
vt 0.308392 0.718729
vt 0.009682 0.698445
vt 0.308392 0.698445
vt 0.009682 0.678162
vt 0.308392 0.678162
vt 0.328676 0.698445
vt 0.328676 0.718729
vt 0.970020 0.296472
vt 0.499067 0.296472
vt 0.499067 0.276190
vt 0.970020 0.276190
vt 0.970020 0.357320
vt 0.499067 0.357320
vt 0.499067 0.337037
vt 0.970020 0.337037
vt 0.499067 0.316755
vt 0.970020 0.316755
vt 0.990303 0.337037
vt 0.990303 0.316755
vt 0.029964 0.236544
vt 0.500722 0.236544
vt 0.500722 0.256827
vt 0.029964 0.256827
vt 0.029964 0.175697
vt 0.500722 0.175697
vt 0.500722 0.195980
vt 0.029964 0.195980
vt 0.500722 0.216262
vt 0.029964 0.216262
vt 0.009682 0.195980
vt 0.009682 0.216262
vt 0.009682 0.597947
vt 0.009682 0.577664
vt 0.308392 0.577664
vt 0.308392 0.597947
vt 0.009682 0.658798
vt 0.009682 0.638515
vt 0.308392 0.638515
vt 0.308392 0.658798
vt 0.009682 0.618231
vt 0.308392 0.618231
vt 0.328675 0.618231
vt 0.328675 0.638515
vt 0.348039 0.577664
vt 0.646749 0.577664
vt 0.646749 0.597947
vt 0.348039 0.597947
vt 0.646749 0.618231
vt 0.348039 0.618231
vt 0.646749 0.638515
vt 0.348039 0.638515
vt 0.646749 0.658798
vt 0.348039 0.658798
vt 0.667033 0.618231
vt 0.667033 0.638515
vt 0.029964 0.296472
vt 0.029964 0.276190
vt 0.029964 0.357320
vt 0.029964 0.337037
vt 0.029964 0.316755
vt 0.009682 0.337037
vt 0.009682 0.316755
vt 0.970036 0.236544
vt 0.970036 0.256827
vt 0.970036 0.175697
vt 0.970036 0.195980
vt 0.970036 0.216262
vt 0.990318 0.195980
vt 0.990318 0.216262
s 1
f 1/1/1 2/2/1 4/3/1 3/4/1
f 3/5/2 4/6/2 8/7/2 7/8/2
f 7/8/3 8/7/3 6/9/3 5/10/3
f 5/10/4 6/9/4 2/2/4 1/1/4
f 8/7/5 4/11/5 2/12/5 6/9/5
f 9/13/1 11/14/1 12/15/1 10/16/1
f 11/14/4 15/17/4 16/18/4 12/15/4
f 15/17/3 13/19/3 14/20/3 16/18/3
f 13/19/2 9/21/2 10/22/2 14/20/2
f 16/18/5 14/20/5 10/23/5 12/24/5
f 17/25/1 18/26/1 20/27/1 19/28/1
f 19/29/6 20/30/6 24/31/6 23/32/6
f 23/32/3 24/31/3 22/33/3 21/34/3
f 21/34/7 22/33/7 18/26/7 17/25/7
f 19/35/4 23/32/4 21/34/4 17/36/4
f 25/37/1 26/38/1 28/39/1 27/40/1
f 27/41/8 28/42/8 32/43/8 31/44/8
f 31/44/3 32/43/3 30/45/3 29/46/3
f 29/46/9 30/45/9 26/38/9 25/37/9
f 27/47/4 31/44/4 29/46/4 25/48/4
f 33/49/1 35/50/1 36/51/1 34/52/1
f 35/53/4 39/54/4 40/55/4 36/56/4
f 39/54/3 37/57/3 38/58/3 40/55/3
f 37/57/2 33/49/2 34/52/2 38/58/2
f 40/55/5 38/58/5 34/59/5 36/60/5
f 41/61/1 42/62/1 44/63/1 43/64/1
f 43/64/2 44/63/2 48/65/2 47/66/2
f 47/66/3 48/65/3 46/67/3 45/68/3
f 45/68/4 46/67/4 42/69/4 41/70/4
f 48/65/5 44/71/5 42/72/5 46/67/5
f 49/73/1 50/74/1 20/27/1 18/26/1
f 50/75/10 52/76/10 24/31/10 20/30/10
f 52/76/3 51/77/3 22/33/3 24/31/3
f 51/77/11 49/73/11 18/26/11 22/33/11
f 50/78/2 49/79/2 51/77/2 52/76/2
f 53/80/1 54/81/1 28/39/1 26/38/1
f 54/82/12 56/83/12 32/43/12 28/42/12
f 56/83/3 55/84/3 30/45/3 32/43/3
f 55/84/13 53/80/13 26/38/13 30/45/13
f 54/85/2 53/86/2 55/84/2 56/83/2
