# Blender 4.4.3
# www.blender.org
o Cerca_Unica_Low
v -0.237649 -0.721805 3.242092
v -0.237649 8.093596 3.242092
v -0.237649 -0.721805 2.766794
v -0.237649 8.093596 2.766794
v 0.237649 -0.721805 3.242092
v 0.237649 8.093596 3.242092
v 0.237649 -0.721805 2.766794
v 0.237649 8.093596 2.766794
v -0.237649 -0.721805 -3.242092
v -0.237649 8.093595 -3.242092
v -0.237649 -0.721805 -2.766794
v -0.237649 8.093596 -2.766794
v 0.237649 -0.721805 -3.242092
v 0.237649 8.093595 -3.242092
v 0.237649 -0.721805 -2.766794
v 0.237649 8.093596 -2.766794
v 0.239328 6.822492 5.536243
v 0.259476 6.802344 -5.467043
v 0.239328 6.391645 5.536243
v 0.259476 6.411793 -5.467041
v 0.670175 6.822492 5.536243
v 0.650027 6.784081 -5.467043
v 0.670175 6.391645 5.536243
v 0.650027 6.430056 -5.467041
v 0.239328 5.191593 5.536243
v 0.239328 4.522655 -5.467041
v 0.239328 4.760746 5.536243
v 0.239328 4.091809 -5.467041
v 0.670175 5.191593 5.536243
v 0.670175 4.522655 -5.467041
v 0.670175 4.760746 5.536243
v 0.670175 4.091809 -5.467041
v 0.239328 5.191593 3.415244
v 0.239328 4.760746 3.415244
v 0.670175 4.760746 3.415244
v 0.670175 5.191593 3.415244
v 0.239328 4.522655 -3.348039
v 0.239328 4.091809 -3.348039
v 0.670175 4.091809 -3.348039
v 0.670175 4.522655 -3.348039
vn -1.0000 -0.0000 -0.0000
vn -0.0000 -0.0000 -1.0000
vn 1.0000 -0.0000 -0.0000
vn -0.0000 -0.0000 1.0000
vn -0.0000 1.0000 -0.0000
vn -1.0000 -0.0000 -0.0018
vn 0.0222 -0.9997 -0.0027
vn 1.0000 -0.0000 -0.0018
vn 0.0222 0.9997 -0.0027
vn -0.0000 -0.9988 0.0493
vn -0.0000 -1.0000 -0.0000
vn -0.0000 0.9988 -0.0493
vt 0.012887 0.641400
vt 0.384980 0.641400
vt 0.384980 0.661462
vt 0.012887 0.661462
vt 0.012887 0.581214
vt 0.384980 0.581214
vt 0.384980 0.601276
vt 0.012887 0.601276
vt 0.384980 0.621338
vt 0.012887 0.621338
vt 0.405043 0.601276
vt 0.405043 0.621338
vt 0.012887 0.887539
vt 0.012887 0.867477
vt 0.384980 0.867477
vt 0.384980 0.887539
vt 0.012887 0.947725
vt 0.012887 0.927663
vt 0.384980 0.927663
vt 0.384980 0.947725
vt 0.012887 0.907601
vt 0.384980 0.907601
vt 0.405042 0.907601
vt 0.405042 0.927663
vt 0.030449 0.495920
vt 0.500722 0.495920
vt 0.500722 0.512661
vt 0.030449 0.512661
vt 0.030449 0.444919
vt 0.500722 0.444919
vt 0.500722 0.462049
vt 0.030449 0.462049
vt 0.500722 0.478790
vt 0.030449 0.478790
vt 0.012887 0.462049
vt 0.012887 0.478790
vt 0.518284 0.462049
vt 0.518284 0.478790
vt 0.407433 0.375590
vt 0.497204 0.375590
vt 0.497204 0.393754
vt 0.407433 0.393754
vt 0.407433 0.321098
vt 0.497204 0.321098
vt 0.497204 0.339262
vt 0.407433 0.339262
vt 0.497204 0.357426
vt 0.407433 0.357426
vt 0.012887 0.339262
vt 0.031051 0.339262
vt 0.031051 0.357426
vt 0.012887 0.357426
vt 0.515368 0.339262
vt 0.515368 0.357426
vt 0.120907 0.357426
vt 0.120907 0.375590
vt 0.031051 0.375590
vt 0.120907 0.339262
vt 0.031051 0.321098
vt 0.120907 0.321098
vt 0.120907 0.393754
vt 0.031051 0.393754
s 1
f 1/1/1 2/2/1 4/3/1 3/4/1
f 3/5/2 4/6/2 8/7/2 7/8/2
f 7/8/3 8/7/3 6/9/3 5/10/3
f 5/10/4 6/9/4 2/2/4 1/1/4
f 8/7/5 4/11/5 2/12/5 6/9/5
f 9/13/1 11/14/1 12/15/1 10/16/1
f 11/17/4 15/18/4 16/19/4 12/20/4
f 15/18/3 13/21/3 14/22/3 16/19/3
f 13/21/2 9/13/2 10/16/2 14/22/2
f 16/19/5 14/22/5 10/23/5 12/24/5
f 17/25/6 18/26/6 20/27/6 19/28/6
f 19/29/7 20/30/7 24/31/7 23/32/7
f 23/32/8 24/31/8 22/33/8 21/34/8
f 21/34/9 22/33/9 18/26/9 17/25/9
f 19/35/4 23/32/4 21/34/4 17/36/4
f 24/31/2 20/37/2 18/38/2 22/33/2
f 37/39/1 26/40/1 28/41/1 38/42/1
f 38/43/10 28/44/11 32/45/11 39/46/10
f 39/46/3 32/45/3 30/47/3 40/48/3
f 40/48/12 30/47/5 26/40/5 37/39/12
f 27/49/4 31/50/4 29/51/4 25/52/4
f 32/45/2 28/53/2 26/54/2 30/47/2
f 29/51/5 36/55/12 33/56/12 25/57/5
f 31/50/3 35/58/3 36/55/3 29/51/3
f 27/59/11 34/60/10 35/58/10 31/50/11
f 25/57/1 33/56/1 34/61/1 27/62/1
f 36/55/12 40/48/12 37/39/12 33/56/12
f 35/58/3 39/46/3 40/48/3 36/55/3
f 34/60/10 38/43/10 39/46/10 35/58/10
f 33/56/1 37/39/1 38/42/1 34/61/1
