# Blender 4.3.2
# www.blender.org
mtllib Gate left door.mtl
o Cube.004
v -0.193603 2.535379 -0.006407
v -0.193603 2.998091 -0.006407
v 0.285263 2.535379 -0.006407
v 0.285263 2.998091 -0.006407
v -0.193603 3.205434 2.771385
v -0.193603 3.668146 2.771387
v 0.285263 3.205434 2.771385
v 0.285263 3.668146 2.771387
v -0.193604 4.058503 5.239791
v 0.285264 4.058503 5.239791
v 0.285264 3.595791 5.239791
v -0.193604 3.595791 5.239791
v -0.193604 0.474046 -0.006405
v -0.193604 0.936757 -0.006405
v 0.285264 0.474046 -0.006405
v 0.285264 0.936757 -0.006405
v -0.193604 1.144101 2.771387
v -0.193604 1.606813 2.771389
v 0.285264 1.144101 2.771387
v 0.285264 1.606813 2.771389
v -0.193604 1.993232 5.239794
v 0.285264 1.993232 5.239794
v 0.285264 1.530521 5.239794
v -0.193604 1.530521 5.239794
v -0.177487 1.123776 1.546717
v -0.177487 3.241094 1.546716
v -0.177487 1.123776 1.993351
v -0.177487 3.241094 1.993351
v 0.269147 1.123776 1.546717
v 0.269147 3.241094 1.546716
v 0.269147 1.123776 1.993351
v 0.269147 3.241094 1.993351
v -0.177487 1.531911 3.782185
v -0.177487 3.649227 3.782184
v -0.177487 1.531911 4.228819
v -0.177487 3.649227 4.228818
v 0.269147 1.531911 3.782185
v 0.269147 3.649227 3.782184
v 0.269147 1.531911 4.228819
v 0.269147 3.649227 4.228818
v -0.218468 -0.886057 -0.013026
v -0.218468 -0.357460 -0.013026
v 0.310128 -0.886057 -0.013026
v 0.310128 -0.357460 -0.013026
v -0.218468 -0.886057 5.239792
v -0.218468 -0.357459 5.239792
v 0.310128 -0.886057 5.239792
v 0.310128 -0.357459 5.239792
v -0.218468 -3.192115 -0.013026
v -0.218468 -2.663517 -0.013026
v 0.310128 -3.192115 -0.013026
v 0.310128 -2.663517 -0.013026
v -0.218468 -3.192114 5.239792
v -0.218468 -2.663517 5.239792
v 0.310128 -3.192114 5.239792
v 0.310128 -2.663517 5.239792
v -0.096840 -3.183089 1.344990
v -0.096840 1.143490 1.344990
v -0.096840 -3.183088 1.630331
v -0.096840 1.143490 1.630331
v 0.188500 -3.183089 1.344990
v 0.188500 1.143490 1.344990
v 0.188500 -3.183088 1.630331
v 0.188500 1.143490 1.630331
v -0.112934 -2.961803 3.893795
v -0.112934 1.565651 3.893795
v -0.112934 -2.961803 4.211323
v -0.112934 1.565651 4.211323
v 0.204594 -2.961803 3.893795
v 0.204594 1.565651 3.893795
v 0.204594 -2.961803 4.211323
v 0.204594 1.565651 4.211323
vn -0.0000 -0.0000 -1.0000
vn -1.0000 -0.0000 -0.0000
vn -0.0000 -0.9807 0.1955
vn -0.0000 -0.9721 0.2345
vn -0.0000 0.9807 -0.1955
vn -0.0000 0.9721 -0.2345
vn 1.0000 -0.0000 -0.0000
vn -0.0000 -0.9877 0.1562
vn -0.0000 -0.0000 1.0000
vn -0.0000 0.9877 -0.1562
vn -0.0000 -0.9809 0.1947
vn -0.0000 0.9809 -0.1947
vn -0.0000 -0.9880 0.1547
vn -0.0000 0.9880 -0.1547
vn -0.0000 -1.0000 -0.0000
vn -0.0000 1.0000 -0.0000
vt 0.603097 0.261760
vt 0.603097 0.282436
vt 0.583118 0.282436
vt 0.583118 0.261760
vt 0.579625 0.261290
vt 0.603710 0.122365
vt 0.622249 0.114919
vt 0.598164 0.253844
vt 0.709095 0.150735
vt 0.709095 0.009737
vt 0.729771 0.009737
vt 0.729771 0.150735
vt 0.750917 0.117641
vt 0.750917 0.258638
vt 0.730241 0.258638
vt 0.730241 0.117641
vt 0.555071 0.122365
vt 0.579156 0.261290
vt 0.560617 0.253844
vt 0.536532 0.114918
vt 0.598164 0.009737
vt 0.579625 0.017184
vt 0.560616 0.009737
vt 0.579156 0.017184
vt 0.729771 0.258638
vt 0.709095 0.258638
vt 0.603097 0.303582
vt 0.583118 0.303582
vt 0.583118 0.282906
vt 0.603097 0.282906
vt 0.730241 0.009737
vt 0.750917 0.009737
vt 0.702654 0.284978
vt 0.702654 0.305654
vt 0.682676 0.305654
vt 0.682676 0.284978
vt 0.665907 0.261215
vt 0.690081 0.122305
vt 0.708625 0.114871
vt 0.684451 0.253780
vt 0.772533 0.150735
vt 0.772533 0.009737
vt 0.793209 0.009737
vt 0.793209 0.150735
vt 0.772063 0.117614
vt 0.772063 0.258612
vt 0.751387 0.258612
vt 0.751387 0.117614
vt 0.641263 0.122305
vt 0.665437 0.261215
vt 0.646893 0.253780
vt 0.622719 0.114871
vt 0.684451 0.009737
vt 0.665907 0.017172
vt 0.646893 0.009737
vt 0.665437 0.017172
vt 0.793209 0.258612
vt 0.772533 0.258612
vt 0.682206 0.305654
vt 0.662227 0.305654
vt 0.662227 0.284978
vt 0.682206 0.284978
vt 0.751387 0.009737
vt 0.772063 0.009737
vt 0.771141 0.259081
vt 0.790426 0.259081
vt 0.790426 0.350501
vt 0.771141 0.350501
vt 0.793679 0.250889
vt 0.812963 0.250889
vt 0.812963 0.342309
vt 0.793679 0.342309
vt 0.751387 0.259081
vt 0.770671 0.259081
vt 0.770671 0.350501
vt 0.751387 0.350501
vt 0.813433 0.250889
vt 0.832718 0.250889
vt 0.832718 0.342309
vt 0.813433 0.342309
vt 0.536532 0.304338
vt 0.536532 0.285053
vt 0.555816 0.285053
vt 0.555816 0.304338
vt 0.556286 0.304338
vt 0.556286 0.285053
vt 0.575571 0.285053
vt 0.575571 0.304338
vt 0.642473 0.261685
vt 0.661758 0.261685
vt 0.661758 0.353105
vt 0.642473 0.353105
vt 0.709095 0.259108
vt 0.728379 0.259108
vt 0.728379 0.350528
vt 0.709095 0.350528
vt 0.622719 0.261685
vt 0.642003 0.261685
vt 0.642003 0.353105
vt 0.622719 0.353105
vt 0.728849 0.259108
vt 0.748134 0.259108
vt 0.748134 0.350528
vt 0.728849 0.350528
vt 0.602873 0.304052
vt 0.622157 0.304052
vt 0.622157 0.323336
vt 0.602873 0.323336
vt 0.583118 0.323336
vt 0.583118 0.304052
vt 0.602403 0.304052
vt 0.602403 0.323336
vt 0.536532 0.261760
vt 0.559355 0.261760
vt 0.559355 0.284583
vt 0.536532 0.284583
vt 0.943571 0.236540
vt 0.943571 0.009737
vt 0.966395 0.009737
vt 0.966395 0.236540
vt 0.966865 0.236540
vt 0.966865 0.009737
vt 0.989688 0.009737
vt 0.989688 0.236540
vt 0.873222 0.009737
vt 0.873222 0.236540
vt 0.850398 0.236540
vt 0.850398 0.009737
vt 0.582649 0.284583
vt 0.559825 0.284583
vt 0.559825 0.261760
vt 0.582649 0.261760
vt 0.896985 0.236540
vt 0.896985 0.009737
vt 0.919808 0.009737
vt 0.919808 0.236540
vt 0.920278 0.236540
vt 0.920278 0.009737
vt 0.943102 0.009737
vt 0.943102 0.236540
vt 0.662227 0.261685
vt 0.685051 0.261685
vt 0.685051 0.284508
vt 0.662227 0.284508
vt 0.850398 0.463812
vt 0.850398 0.237009
vt 0.873222 0.237009
vt 0.873222 0.463812
vt 0.896515 0.009737
vt 0.896515 0.236540
vt 0.873692 0.236540
vt 0.873692 0.009737
vt 0.896515 0.237009
vt 0.896515 0.463812
vt 0.873692 0.463812
vt 0.873692 0.237009
vt 0.685521 0.284508
vt 0.685521 0.261685
vt 0.708344 0.261685
vt 0.708344 0.284508
vt 0.896985 0.237009
vt 0.909305 0.237009
vt 0.909305 0.450064
vt 0.896985 0.450064
vt 0.922565 0.237009
vt 0.934885 0.237009
vt 0.934885 0.450064
vt 0.922565 0.450064
vt 0.909775 0.237009
vt 0.922095 0.237009
vt 0.922095 0.450064
vt 0.909775 0.450064
vt 0.935355 0.237009
vt 0.947675 0.237009
vt 0.947675 0.450064
vt 0.935355 0.450064
vt 0.548852 0.304808
vt 0.548852 0.317128
vt 0.536532 0.317128
vt 0.536532 0.304808
vt 0.617277 0.288260
vt 0.604957 0.288260
vt 0.604957 0.275940
vt 0.617277 0.275940
vt 0.836219 0.009737
vt 0.849929 0.009737
vt 0.849929 0.250419
vt 0.836219 0.250419
vt 0.793679 0.009737
vt 0.807389 0.009737
vt 0.807389 0.250419
vt 0.793679 0.250419
vt 0.822039 0.009737
vt 0.835749 0.009737
vt 0.835749 0.250419
vt 0.822039 0.250419
vt 0.807859 0.009737
vt 0.821569 0.009737
vt 0.821569 0.250419
vt 0.807859 0.250419
vt 0.603567 0.289872
vt 0.617277 0.289872
vt 0.617277 0.303582
vt 0.603567 0.303582
vt 0.617277 0.275470
vt 0.603567 0.275470
vt 0.603567 0.261760
vt 0.617277 0.261760
s 1
usemtl Material.001
f 3/1/1 1/2/1 2/3/1 4/4/1
f 1/5/2 5/6/2 6/7/2 2/8/2
f 5/9/3 1/10/4 3/11/4 7/12/3
f 8/13/5 4/14/6 2/15/6 6/16/5
f 7/17/7 3/18/7 4/19/7 8/20/7
f 9/21/2 6/7/2 5/6/2 12/22/2
f 8/20/7 10/23/7 11/24/7 7/17/7
f 7/12/3 11/25/8 12/26/8 5/9/3
f 9/27/9 12/28/9 11/29/9 10/30/9
f 6/16/5 9/31/10 10/32/10 8/13/5
f 15/33/1 13/34/1 14/35/1 16/36/1
f 13/37/2 17/38/2 18/39/2 14/40/2
f 17/41/11 13/42/4 15/43/4 19/44/11
f 20/45/12 16/46/6 14/47/6 18/48/12
f 19/49/7 15/50/7 16/51/7 20/52/7
f 21/53/2 18/39/2 17/38/2 24/54/2
f 20/52/7 22/55/7 23/56/7 19/49/7
f 19/44/11 23/57/13 24/58/13 17/41/11
f 21/59/9 24/60/9 23/61/9 22/62/9
f 18/48/12 21/63/14 22/64/14 20/45/12
f 25/65/2 27/66/2 28/67/2 26/68/2
f 27/69/9 31/70/9 32/71/9 28/72/9
f 31/73/7 29/74/7 30/75/7 32/76/7
f 29/77/1 25/78/1 26/79/1 30/80/1
f 27/81/15 25/82/15 29/83/15 31/84/15
f 32/85/16 30/86/16 26/87/16 28/88/16
f 33/89/2 35/90/2 36/91/2 34/92/2
f 35/93/9 39/94/9 40/95/9 36/96/9
f 39/97/7 37/98/7 38/99/7 40/100/7
f 37/101/1 33/102/1 34/103/1 38/104/1
f 35/105/15 33/106/15 37/107/15 39/108/15
f 40/109/16 38/110/16 34/111/16 36/112/16
f 43/113/1 41/114/1 42/115/1 44/116/1
f 47/117/7 43/118/7 44/119/7 48/120/7
f 45/121/15 41/122/15 43/123/15 47/124/15
f 48/125/16 44/126/16 42/127/16 46/128/16
f 46/129/9 45/130/9 47/131/9 48/132/9
f 41/133/2 45/134/2 46/135/2 42/136/2
f 55/137/7 51/138/7 52/139/7 56/140/7
f 51/141/1 49/142/1 50/143/1 52/144/1
f 53/145/15 49/146/15 51/147/15 55/148/15
f 56/149/16 52/150/16 50/151/16 54/152/16
f 49/153/2 53/154/2 54/155/2 50/156/2
f 54/157/9 53/158/9 55/159/9 56/160/9
f 57/161/2 59/162/2 60/163/2 58/164/2
f 59/165/9 63/166/9 64/167/9 60/168/9
f 63/169/7 61/170/7 62/171/7 64/172/7
f 61/173/1 57/174/1 58/175/1 62/176/1
f 59/177/15 57/178/15 61/179/15 63/180/15
f 64/181/16 62/182/16 58/183/16 60/184/16
f 65/185/2 67/186/2 68/187/2 66/188/2
f 67/189/9 71/190/9 72/191/9 68/192/9
f 71/193/7 69/194/7 70/195/7 72/196/7
f 69/197/1 65/198/1 66/199/1 70/200/1
f 67/201/15 65/202/15 69/203/15 71/204/15
f 72/205/16 70/206/16 66/207/16 68/208/16
