# Blender 4.3.2
# www.blender.org
mtllib Gate right door.mtl
o Cube.002
v -0.193603 2.539360 0.006497
v -0.193603 3.002072 0.006497
v 0.285263 2.539360 0.006497
v 0.285263 3.002072 0.006497
v -0.193603 3.209414 -2.888358
v -0.193603 3.672127 -2.888358
v 0.285263 3.209414 -2.888358
v 0.285263 3.672127 -2.888358
v -0.193604 4.062483 -5.356767
v 0.285264 4.062483 -5.356767
v 0.285264 3.599771 -5.356767
v -0.193604 3.599771 -5.356767
v -0.193604 4.020000 -5.101251
v 0.285264 3.557290 -5.101249
v 0.285264 4.020000 -5.101251
v -0.193604 3.557290 -5.101249
v -0.270248 3.557290 -5.101249
v -0.270248 3.599771 -5.356767
v -0.270248 4.062483 -5.356767
v -0.270248 4.020000 -5.101251
v -0.193604 3.599771 -5.606221
v -0.193604 4.062483 -5.606221
v -0.270248 3.599771 -5.606221
v -0.270248 4.062483 -5.606221
v -0.193604 0.478027 0.006497
v -0.193604 0.940739 0.006497
v 0.285264 0.478027 0.006497
v 0.285264 0.940739 0.006497
v -0.193604 1.148081 -2.888360
v -0.193604 1.610793 -2.888360
v 0.285264 1.148081 -2.888360
v 0.285264 1.610793 -2.888360
v -0.193604 1.997212 -5.356768
v 0.285264 1.997212 -5.356768
v 0.285264 1.534501 -5.356768
v -0.193604 1.534501 -5.356768
v -0.193604 1.955160 -5.101250
v 0.285264 1.492448 -5.101250
v 0.285264 1.955160 -5.101250
v -0.193604 1.492448 -5.101250
v -0.270248 1.492448 -5.101250
v -0.270248 1.534501 -5.356768
v -0.270248 1.997212 -5.356768
v -0.270248 1.955160 -5.101250
v -0.193604 1.534501 -5.606223
v -0.193604 1.997212 -5.606223
v -0.270248 1.534501 -5.606223
v -0.270248 1.997212 -5.606223
v -0.218468 -0.882076 -0.009395
v -0.218468 -0.353479 -0.009395
v 0.310128 -0.882076 -0.009395
v 0.310128 -0.353479 -0.009395
v -0.218468 -0.882076 -5.356768
v -0.218468 -0.353479 -5.356768
v 0.310128 -0.882076 -5.356768
v 0.310128 -0.353479 -5.356768
v -0.218468 -0.882076 -5.081746
v 0.310128 -0.353479 -5.081746
v -0.218468 -0.353479 -5.081746
v 0.310128 -0.882076 -5.081746
v -0.295113 -0.353479 -5.081746
v -0.295113 -0.353479 -5.356768
v -0.295113 -0.882076 -5.356768
v -0.295113 -0.882076 -5.081746
v -0.218468 -0.353479 -5.606223
v -0.218468 -0.882076 -5.606223
v -0.295113 -0.353479 -5.606223
v -0.295113 -0.882076 -5.606223
v -0.218468 -3.188134 -0.009394
v -0.218468 -2.659537 -0.009394
v 0.310128 -3.188134 -0.009394
v 0.310128 -2.659537 -0.009394
v -0.218468 -3.188134 -5.356768
v -0.218468 -2.659537 -5.356768
v 0.310128 -3.188134 -5.356768
v 0.310128 -2.659537 -5.356768
v -0.218468 -3.188134 -5.081745
v 0.310128 -2.659537 -5.081746
v -0.218468 -2.659537 -5.081746
v 0.310128 -3.188134 -5.081745
v -0.295113 -2.659537 -5.081746
v -0.295113 -2.659537 -5.356768
v -0.295113 -3.188134 -5.356768
v -0.295113 -3.188134 -5.081745
v -0.218468 -2.659537 -5.606223
v -0.218468 -3.188134 -5.606222
v -0.295113 -2.659537 -5.606223
v -0.295113 -3.188134 -5.606222
v -0.177487 1.150269 -1.663687
v -0.177487 3.267587 -1.663687
v -0.177487 1.150269 -2.110322
v -0.177487 3.267587 -2.110322
v 0.269147 1.150269 -1.663687
v 0.269147 3.267587 -1.663687
v 0.269147 1.150269 -2.110322
v 0.269147 3.267587 -2.110322
v -0.177487 1.535890 -3.899149
v -0.177487 3.653208 -3.899150
v -0.177487 1.535890 -4.345784
v -0.177487 3.653208 -4.345784
v 0.269147 1.535890 -3.899149
v 0.269147 3.653208 -3.899150
v 0.269147 1.535890 -4.345784
v 0.269147 3.653208 -4.345784
v -0.096840 -3.179108 -1.461960
v -0.096840 1.169983 -1.461960
v -0.096840 -3.179108 -1.747301
v -0.096840 1.169983 -1.747302
v 0.188500 -3.179108 -1.461960
v 0.188500 1.169983 -1.461960
v 0.188500 -3.179108 -1.747301
v 0.188500 1.169983 -1.747302
v -0.112934 -2.957823 -4.010767
v -0.112934 1.569631 -4.010767
v -0.112934 -2.957823 -4.328295
v -0.112934 1.569631 -4.328295
v 0.204594 -2.957823 -4.010767
v 0.204594 1.569631 -4.010767
v 0.204594 -2.957823 -4.328295
v 0.204594 1.569631 -4.328295
vn -0.0000 -0.0000 1.0000
vn -1.0000 -0.0000 -0.0000
vn -0.0000 -0.9817 -0.1905
vn -0.0000 -0.9742 -0.2255
vn -0.0000 0.9817 0.1905
vn -0.0000 0.9742 0.2255
vn 1.0000 -0.0000 -0.0000
vn -0.0000 -0.9872 -0.1597
vn -0.0000 -0.9869 -0.1611
vn -0.0000 -0.9940 -0.1097
vn -0.0000 -0.9865 -0.1640
vn -0.0000 0.9869 0.1611
vn -0.0000 0.9872 0.1597
vn -0.0000 0.9865 0.1640
vn -0.0000 0.9940 0.1097
vn -0.0000 -0.0000 -1.0000
vn -0.0000 0.9966 0.0823
vn -0.0000 -0.9966 -0.0823
vn -0.0000 -1.0000 -0.0000
vn -0.0000 1.0000 -0.0000
vn -0.0000 -0.9818 -0.1898
vn -0.0000 0.9818 0.1898
vn -0.0000 -0.9874 -0.1581
vn -0.0000 -0.9872 -0.1595
vn -0.0000 -0.9941 -0.1086
vn -0.0000 -0.9867 -0.1624
vn -0.0000 0.9872 0.1595
vn -0.0000 0.9874 0.1581
vn -0.0000 0.9867 0.1624
vn -0.0000 0.9941 0.1086
vn -0.0000 -0.9967 -0.0815
vn -0.0000 0.9967 0.0815
vt 0.846424 0.576463
vt 0.868803 0.576463
vt 0.868803 0.599623
vt 0.846424 0.599623
vt 0.774626 0.686442
vt 0.795416 0.694722
vt 0.771448 0.800376
vt 0.750657 0.792096
vt 0.796788 0.961170
vt 0.775997 0.952890
vt 0.844862 0.798392
vt 0.868022 0.798392
vt 0.868022 0.961170
vt 0.844862 0.961170
vt 0.868606 0.798392
vt 0.891766 0.798392
vt 0.891766 0.961170
vt 0.868606 0.961170
vt 0.960785 0.834969
vt 0.939957 0.843153
vt 0.966042 0.682478
vt 0.986870 0.674294
vt 0.963435 0.948917
vt 0.984264 0.940733
vt 0.986870 0.952987
vt 0.966042 0.961170
vt 0.868022 0.690053
vt 0.844862 0.690053
vt 0.844862 0.677525
vt 0.868022 0.677525
vt 0.891766 0.690053
vt 0.868606 0.690053
vt 0.868606 0.677525
vt 0.891766 0.677525
vt 0.986870 0.598250
vt 0.986870 0.621410
vt 0.964492 0.621410
vt 0.964492 0.598250
vt 0.658888 0.666398
vt 0.658888 0.678926
vt 0.655181 0.678926
vt 0.655181 0.666398
vt 0.879702 0.600208
vt 0.879702 0.622586
vt 0.867344 0.624641
vt 0.867344 0.602262
vt 0.944139 0.661645
vt 0.947846 0.661645
vt 0.947846 0.673710
vt 0.944139 0.673710
vt 0.775997 0.682998
vt 0.796788 0.691278
vt 0.944139 0.649117
vt 0.947846 0.649117
vt 0.947846 0.626154
vt 0.947846 0.648533
vt 0.944139 0.648533
vt 0.944139 0.626154
vt 0.658888 0.690991
vt 0.655181 0.690991
vt 0.960721 0.625380
vt 0.960721 0.647759
vt 0.948656 0.647759
vt 0.948656 0.625380
vt 0.891766 0.600208
vt 0.891766 0.622586
vt 0.891766 0.599623
vt 0.869388 0.599623
vt 0.869388 0.576463
vt 0.891766 0.576463
vt 0.727908 0.686517
vt 0.748703 0.694785
vt 0.724639 0.800391
vt 0.703844 0.792123
vt 0.750073 0.961170
vt 0.729278 0.952902
vt 0.797372 0.798392
vt 0.820532 0.798392
vt 0.820532 0.961170
vt 0.797372 0.961170
vt 0.821117 0.798392
vt 0.844277 0.798392
vt 0.844277 0.961170
vt 0.821117 0.961170
vt 0.918538 0.800512
vt 0.939372 0.792342
vt 0.913185 0.953000
vt 0.892351 0.961170
vt 0.915803 0.686624
vt 0.894969 0.694795
vt 0.892351 0.682547
vt 0.913185 0.674377
vt 0.820532 0.690079
vt 0.797372 0.690079
vt 0.797372 0.677555
vt 0.820532 0.677555
vt 0.844277 0.690079
vt 0.821117 0.690079
vt 0.821117 0.677555
vt 0.844277 0.677555
vt 0.963907 0.598250
vt 0.963907 0.621410
vt 0.941528 0.621410
vt 0.941528 0.598250
vt 0.658888 0.653290
vt 0.658888 0.665814
vt 0.655181 0.665814
vt 0.655181 0.653290
vt 0.914960 0.609135
vt 0.937338 0.609135
vt 0.939372 0.621493
vt 0.916993 0.621493
vt 0.865617 0.626202
vt 0.865617 0.638726
vt 0.861910 0.638726
vt 0.861910 0.626202
vt 0.861325 0.628412
vt 0.861325 0.650791
vt 0.849260 0.650791
vt 0.849260 0.628412
vt 0.729278 0.683073
vt 0.750073 0.691341
vt 0.848568 0.628412
vt 0.848568 0.650791
vt 0.844862 0.650791
vt 0.844862 0.628412
vt 0.914960 0.597070
vt 0.937338 0.597070
vt 0.865617 0.650791
vt 0.861910 0.650791
vt 0.655181 0.641225
vt 0.658888 0.641225
vt 0.613928 0.715850
vt 0.639493 0.715850
vt 0.639493 0.961170
vt 0.613928 0.961170
vt 0.891766 0.650791
vt 0.866201 0.650791
vt 0.866201 0.625226
vt 0.891766 0.625226
vt 0.587778 0.715850
vt 0.613343 0.715850
vt 0.613343 0.961170
vt 0.587778 0.961170
vt 0.509328 0.715850
vt 0.534894 0.715850
vt 0.534894 0.961170
vt 0.509328 0.961170
vt 0.957014 0.661645
vt 0.957014 0.648344
vt 0.960721 0.648344
vt 0.960721 0.661645
vt 0.961305 0.648144
vt 0.986870 0.648144
vt 0.986870 0.673710
vt 0.961305 0.673710
vt 0.613343 0.701964
vt 0.587778 0.701964
vt 0.587778 0.456645
vt 0.613343 0.456645
vt 0.509328 0.702549
vt 0.534894 0.702549
vt 0.587778 0.702549
vt 0.613343 0.702549
vt 0.613928 0.702549
vt 0.639493 0.702549
vt 0.914006 0.647643
vt 0.914006 0.622077
vt 0.927307 0.622077
vt 0.927307 0.647643
vt 0.956429 0.648344
vt 0.956429 0.661645
vt 0.952722 0.661645
vt 0.952722 0.648344
vt 0.960721 0.673710
vt 0.957014 0.673710
vt 0.896866 0.673792
vt 0.896866 0.648227
vt 0.900573 0.648227
vt 0.900573 0.673792
vt 0.852860 0.651376
vt 0.852860 0.676941
vt 0.849153 0.676941
vt 0.849153 0.651376
vt 0.913222 0.648227
vt 0.913222 0.673792
vt 0.901158 0.673792
vt 0.901158 0.648227
vt 0.939372 0.622077
vt 0.939372 0.647643
vt 0.956429 0.673710
vt 0.952722 0.673710
vt 0.508744 0.947869
vt 0.483179 0.947869
vt 0.483179 0.702549
vt 0.508744 0.702549
vt 0.866201 0.676941
vt 0.866201 0.651376
vt 0.891766 0.651376
vt 0.891766 0.676941
vt 0.535478 0.715850
vt 0.561044 0.715850
vt 0.561043 0.961170
vt 0.535478 0.961170
vt 0.561628 0.715850
vt 0.587193 0.715850
vt 0.587193 0.961170
vt 0.561628 0.961170
vt 0.892575 0.673792
vt 0.892575 0.660491
vt 0.896281 0.660491
vt 0.896281 0.673792
vt 0.913807 0.648227
vt 0.939372 0.648227
vt 0.939372 0.673792
vt 0.913807 0.673792
vt 0.613928 0.452938
vt 0.639493 0.452938
vt 0.639493 0.698258
vt 0.613928 0.698258
vt 0.561628 0.702549
vt 0.587193 0.702549
vt 0.535478 0.702549
vt 0.561044 0.702549
vt 0.508744 0.961170
vt 0.483179 0.961170
vt 0.961505 0.647560
vt 0.961505 0.621995
vt 0.974806 0.621995
vt 0.974806 0.647560
vt 0.639493 0.701964
vt 0.613928 0.701964
vt 0.948431 0.661645
vt 0.948431 0.648344
vt 0.952138 0.648344
vt 0.952138 0.661645
vt 0.892575 0.648426
vt 0.896281 0.648426
vt 0.848568 0.651376
vt 0.848568 0.676941
vt 0.844862 0.676941
vt 0.844862 0.651376
vt 0.952138 0.673710
vt 0.948431 0.673710
vt 0.865617 0.651376
vt 0.865617 0.676941
vt 0.853552 0.676941
vt 0.853552 0.651376
vt 0.986870 0.621995
vt 0.986870 0.647560
vt 0.659472 0.690991
vt 0.659472 0.588588
vt 0.681073 0.588588
vt 0.681073 0.690991
vt 0.706286 0.682488
vt 0.706286 0.580086
vt 0.727887 0.580086
vt 0.727887 0.682488
vt 0.728472 0.682488
vt 0.728472 0.580086
vt 0.750073 0.580086
vt 0.750073 0.682488
vt 0.822676 0.676970
vt 0.822676 0.574568
vt 0.844277 0.574568
vt 0.844277 0.676970
vt 0.845158 0.603040
vt 0.866759 0.603040
vt 0.866759 0.624641
vt 0.845158 0.624641
vt 0.892774 0.621493
vt 0.892774 0.599892
vt 0.914375 0.599892
vt 0.914375 0.621493
vt 0.753001 0.682413
vt 0.753001 0.580011
vt 0.774602 0.580011
vt 0.774602 0.682413
vt 0.800490 0.676970
vt 0.800490 0.574568
vt 0.822091 0.574568
vt 0.822091 0.676970
vt 0.681658 0.690991
vt 0.681658 0.588588
vt 0.703259 0.588588
vt 0.703259 0.690991
vt 0.775187 0.682413
vt 0.775187 0.580011
vt 0.796788 0.580011
vt 0.796788 0.682413
vt 0.965269 0.597665
vt 0.965269 0.576064
vt 0.986870 0.576064
vt 0.986870 0.597665
vt 0.892774 0.599307
vt 0.892774 0.577706
vt 0.914375 0.577706
vt 0.914375 0.599307
vt 0.544623 0.701964
vt 0.544623 0.463316
vt 0.558423 0.463316
vt 0.558423 0.701964
vt 0.573393 0.701964
vt 0.573393 0.463316
vt 0.587193 0.463316
vt 0.587193 0.701964
vt 0.530238 0.701964
vt 0.530238 0.463316
vt 0.544038 0.463316
vt 0.544038 0.701964
vt 0.559008 0.701964
vt 0.559008 0.463316
vt 0.572808 0.463316
vt 0.572808 0.701964
vt 0.654596 0.677190
vt 0.654596 0.690991
vt 0.640796 0.690991
vt 0.640796 0.677190
vt 0.640796 0.676606
vt 0.640796 0.662805
vt 0.654596 0.662805
vt 0.654596 0.676606
vt 0.687902 0.961170
vt 0.687902 0.691575
vt 0.703259 0.691575
vt 0.703259 0.961170
vt 0.671961 0.961170
vt 0.671961 0.691575
vt 0.687317 0.691575
vt 0.687317 0.961170
vt 0.640077 0.961170
vt 0.640077 0.691575
vt 0.655434 0.691575
vt 0.655434 0.961170
vt 0.656019 0.961170
vt 0.656019 0.691575
vt 0.671376 0.691575
vt 0.671376 0.961170
vt 0.913422 0.632286
vt 0.913422 0.647643
vt 0.898065 0.647643
vt 0.898065 0.632286
vt 0.643531 0.640640
vt 0.643531 0.625283
vt 0.658888 0.625283
vt 0.658888 0.640640
s 1
usemtl Material.001
f 3/1/1 4/2/1 2/3/1 1/4/1
f 13/5/2 16/6/2 5/7/2 6/8/2
f 1/9/2 2/10/2 6/8/2 5/7/2
f 5/11/3 7/12/3 3/13/4 1/14/4
f 8/15/5 6/16/5 2/17/6 4/18/6
f 7/19/7 8/20/7 4/21/7 3/22/7
f 15/23/7 14/24/7 11/25/7 10/26/7
f 14/27/8 16/28/9 12/29/10 11/30/11
f 13/31/12 15/32/13 10/33/14 9/34/15
f 9/35/16 10/36/16 11/37/16 12/38/16
f 6/16/5 8/15/5 15/32/13 13/31/12
f 7/12/3 5/11/3 16/28/9 14/27/8
f 8/20/7 7/19/7 14/24/7 15/23/7
f 13/39/12 9/40/15 19/41/17 20/42/14
f 19/43/2 18/44/2 17/45/2 20/46/2
f 12/47/10 18/48/18 23/49/19 21/50/19
f 16/6/1 13/5/1 20/51/1 17/52/1
f 12/47/10 16/53/9 17/54/11 18/48/18
f 22/55/16 21/56/16 23/57/16 24/58/16
f 19/41/17 9/40/15 22/59/20 24/60/20
f 9/61/7 12/62/7 21/63/7 22/64/7
f 18/44/2 19/43/2 24/65/2 23/66/2
f 27/67/1 28/68/1 26/69/1 25/70/1
f 37/71/2 40/72/2 29/73/2 30/74/2
f 25/75/2 26/76/2 30/74/2 29/73/2
f 29/77/21 31/78/21 27/79/4 25/80/4
f 32/81/22 30/82/22 26/83/6 28/84/6
f 31/85/7 32/86/7 28/87/7 27/88/7
f 39/89/7 38/90/7 35/91/7 34/92/7
f 38/93/23 40/94/24 36/95/25 35/96/26
f 37/97/27 39/98/28 34/99/29 33/100/30
f 33/101/16 34/102/16 35/103/16 36/104/16
f 30/82/22 32/81/22 39/98/28 37/97/27
f 31/78/21 29/77/21 40/94/24 38/93/23
f 32/86/7 31/85/7 38/90/7 39/89/7
f 36/105/25 40/106/24 41/107/26 42/108/31
f 43/109/2 42/110/2 41/111/2 44/112/2
f 37/113/27 33/114/30 43/115/32 44/116/29
f 33/117/7 36/118/7 45/119/7 46/120/7
f 40/72/1 37/71/1 44/121/1 41/122/1
f 46/123/16 45/124/16 47/125/16 48/126/16
f 42/110/2 43/109/2 48/127/2 47/128/2
f 43/115/32 33/114/30 46/129/20 48/130/20
f 36/105/25 42/108/31 47/131/19 45/132/19
f 60/133/7 58/134/7 52/135/7 51/136/7
f 51/137/1 52/138/1 50/139/1 49/140/1
f 57/141/19 60/142/19 51/143/19 49/144/19
f 58/145/20 59/146/20 50/147/20 52/148/20
f 53/149/19 57/150/19 64/151/19 63/152/19
f 54/153/16 56/154/16 55/155/16 53/156/16
f 49/157/2 50/158/2 59/159/2 57/160/2
f 56/161/20 54/162/20 59/146/20 58/145/20
f 53/163/19 55/164/19 60/142/19 57/141/19
f 55/165/7 56/166/7 58/134/7 60/133/7
f 64/167/2 61/168/2 62/169/2 63/170/2
f 59/171/20 54/172/20 62/173/20 61/174/20
f 53/149/19 63/152/19 68/175/19 66/176/19
f 57/177/1 59/178/1 61/179/1 64/180/1
f 65/181/16 66/182/16 68/183/16 67/184/16
f 54/185/7 53/186/7 66/187/7 65/188/7
f 63/170/2 62/169/2 67/189/2 68/190/2
f 62/173/20 54/172/20 65/191/20 67/192/20
f 80/193/7 78/194/7 72/195/7 71/196/7
f 71/197/1 72/198/1 70/199/1 69/200/1
f 77/201/19 80/202/19 71/203/19 69/204/19
f 78/205/20 79/206/20 70/207/20 72/208/20
f 79/209/20 74/210/20 82/211/20 81/212/20
f 74/213/16 76/214/16 75/215/16 73/216/16
f 69/217/2 70/218/2 79/219/2 77/220/2
f 76/221/20 74/222/20 79/206/20 78/205/20
f 73/223/19 75/224/19 80/202/19 77/201/19
f 75/225/7 76/226/7 78/194/7 80/193/7
f 84/227/2 81/228/2 82/229/2 83/230/2
f 77/220/1 79/219/1 81/231/1 84/232/1
f 73/233/19 77/234/19 84/235/19 83/236/19
f 82/211/20 74/210/20 85/237/20 87/238/20
f 85/239/16 86/240/16 88/241/16 87/242/16
f 73/233/19 83/236/19 88/243/19 86/244/19
f 74/245/7 73/246/7 86/247/7 85/248/7
f 83/230/2 82/229/2 87/249/2 88/250/2
f 89/251/2 90/252/2 92/253/2 91/254/2
f 91/255/16 92/256/16 96/257/16 95/258/16
f 95/259/7 96/260/7 94/261/7 93/262/7
f 93/263/1 94/264/1 90/265/1 89/266/1
f 91/267/19 95/268/19 93/269/19 89/270/19
f 96/271/20 92/272/20 90/273/20 94/274/20
f 97/275/2 98/276/2 100/277/2 99/278/2
f 99/279/16 100/280/16 104/281/16 103/282/16
f 103/283/7 104/284/7 102/285/7 101/286/7
f 101/287/1 102/288/1 98/289/1 97/290/1
f 99/291/19 103/292/19 101/293/19 97/294/19
f 104/295/20 100/296/20 98/297/20 102/298/20
f 105/299/2 106/300/2 108/301/2 107/302/2
f 107/303/16 108/304/16 112/305/16 111/306/16
f 111/307/7 112/308/7 110/309/7 109/310/7
f 109/311/1 110/312/1 106/313/1 105/314/1
f 107/315/19 111/316/19 109/317/19 105/318/19
f 112/319/20 108/320/20 106/321/20 110/322/20
f 113/323/2 114/324/2 116/325/2 115/326/2
f 115/327/16 116/328/16 120/329/16 119/330/16
f 119/331/7 120/332/7 118/333/7 117/334/7
f 117/335/1 118/336/1 114/337/1 113/338/1
f 115/339/19 119/340/19 117/341/19 113/342/19
f 120/343/20 116/344/20 114/345/20 118/346/20
