# Blender 4.3.2
# www.blender.org
mtllib Lever Handle.mtl
o Cube.001
v -0.084571 -0.126431 0.172261
v -0.084571 1.009842 1.423773
v -0.084571 0.196296 -0.081775
v -0.084571 1.145295 1.316830
v 0.084571 -0.126431 0.172261
v 0.084571 1.009842 1.423773
v 0.084571 0.196296 -0.081775
v 0.084571 1.145295 1.316830
v -0.084571 1.268029 1.750787
v -0.084571 1.403482 1.643844
v 0.084571 1.403482 1.643844
v 0.084571 1.268029 1.750787
v -0.084571 1.316697 1.336989
v 0.084571 1.316697 1.336989
v 0.084571 0.989683 1.595175
v -0.084571 0.989683 1.595175
v -0.084571 1.423640 1.472443
v 0.084571 1.423640 1.472443
v 0.084571 1.096627 1.730629
v -0.084571 1.096627 1.730629
v -0.084571 0.864866 1.392195
v -0.084571 1.149284 1.168315
v 0.084571 1.149284 1.168315
v 0.084571 0.864866 1.392195
v -0.084571 1.264038 1.899303
v -0.084571 1.548457 1.675423
v 0.084571 1.548457 1.675423
v 0.084571 1.264038 1.899303
v 0.084571 1.366083 1.187264
v 0.084571 1.580957 1.460237
v 0.084571 1.047239 1.880354
v 0.084571 0.832367 1.607380
v -0.084571 0.832367 1.607380
v -0.084571 1.047239 1.880354
v -0.084571 1.580957 1.460237
v -0.084571 1.366083 1.187264
v -0.065438 1.054370 1.448669
v -0.065438 1.159179 1.365919
v 0.065438 1.054370 1.448669
v 0.065438 1.159179 1.365919
v -0.065438 1.254145 1.701698
v -0.065438 1.358953 1.618949
v 0.065438 1.358953 1.618949
v 0.065438 1.254145 1.701698
v -0.065438 1.291802 1.381518
v 0.065438 1.291802 1.381518
v 0.065438 1.038772 1.581292
v -0.065438 1.038772 1.581292
v -0.065438 1.374552 1.486326
v 0.065438 1.374552 1.486326
v 0.065438 1.121521 1.686100
v -0.065438 1.121521 1.686100
v 0.065438 1.206662 1.533808
v -0.065438 1.206662 1.533808
vn -1.0000 -0.0000 -0.0000
vn -0.0000 0.7953 -0.6063
vn 1.0000 -0.0000 -0.0000
vn -0.0000 -0.7761 0.6306
vn -0.0000 -0.6185 -0.7858
vn -0.0000 0.6185 0.7858
vn -0.0000 -0.7858 0.6185
vn -0.0000 0.7858 -0.6185
vn -0.0000 -0.0871 0.9962
vn -0.0000 0.9888 0.1493
vn -0.0000 -0.9888 -0.1493
vn -0.0000 0.0871 -0.9962
vn 0.9266 0.0439 -0.3736
vn 0.9266 -0.2331 -0.2952
vn -0.9266 -0.3736 -0.0439
vn 0.9266 -0.2952 0.2331
vn -0.9266 0.0439 -0.3736
vn 0.9266 0.2952 -0.2331
vn 0.9266 -0.3736 -0.0439
vn -0.9266 0.2952 -0.2331
vn -0.9266 -0.2952 0.2331
vn 0.9266 -0.0439 0.3736
vn -0.9266 -0.2331 -0.2952
vn -0.9266 -0.0439 0.3736
vt 0.728615 0.385153
vt 0.724391 0.657510
vt 0.661668 0.657510
vt 0.657444 0.385153
vt 0.811785 0.000321
vt 0.811785 0.272711
vt 0.782475 0.272711
vt 0.782475 0.000321
vt 0.728615 0.000321
vt 0.724391 0.272678
vt 0.661668 0.272678
vt 0.657444 0.000321
vt 0.841737 0.000321
vt 0.841737 0.272711
vt 0.812427 0.272711
vt 0.812427 0.000321
vt 0.103234 0.734859
vt 0.132544 0.734859
vt 0.132544 0.806030
vt 0.103234 0.806030
vt 0.752523 0.135943
vt 0.781833 0.135943
vt 0.781833 0.198666
vt 0.752523 0.198666
vt 0.781833 0.296576
vt 0.752523 0.296576
vt 0.752523 0.236377
vt 0.781833 0.236377
vt 0.752523 0.038032
vt 0.781833 0.038032
vt 0.781833 0.098231
vt 0.752523 0.098231
vt 0.781833 0.334287
vt 0.752523 0.334287
vt 0.752523 0.000321
vt 0.781833 0.000321
vt 0.708036 0.677349
vt 0.678130 0.677305
vt 0.707930 0.292473
vt 0.678024 0.292517
vt 0.678024 0.749505
vt 0.707930 0.749548
vt 0.724391 0.769343
vt 0.661668 0.769343
vt 0.678130 0.364716
vt 0.708036 0.364673
vt 0.724391 0.384511
vt 0.661668 0.384511
vt 0.729152 0.343495
vt 0.729108 0.313589
vt 0.751880 0.298495
vt 0.751880 0.358694
vt 0.656908 0.313694
vt 0.656952 0.343601
vt 0.634180 0.358694
vt 0.634180 0.298495
vt 0.729108 0.728433
vt 0.729152 0.698526
vt 0.751880 0.683327
vt 0.751880 0.743526
vt 0.656952 0.698421
vt 0.656908 0.728327
vt 0.634180 0.743526
vt 0.634180 0.683327
vt 0.842379 0.304096
vt 0.842381 0.273728
vt 0.851170 0.277355
vt 0.851165 0.300458
vt 0.863848 0.325571
vt 0.867501 0.316794
vt 0.894248 0.252238
vt 0.863864 0.252238
vt 0.867505 0.261026
vt 0.890605 0.261025
vt 0.915715 0.304110
vt 0.894229 0.325594
vt 0.890603 0.316797
vt 0.906935 0.300459
vt 0.946659 0.021816
vt 0.946658 0.052184
vt 0.937873 0.048545
vt 0.937869 0.025443
vt 0.925178 0.000325
vt 0.921536 0.009112
vt 0.894796 0.000321
vt 0.898435 0.009109
vt 0.894805 0.073677
vt 0.873325 0.052179
vt 0.882108 0.048543
vt 0.898434 0.064880
vt 0.873325 0.021800
vt 0.882104 0.025449
vt 0.915713 0.273730
vt 0.906931 0.277365
vt 0.925188 0.073658
vt 0.921535 0.064880
vt 0.879052 0.288910
vt 0.909987 0.036995
s 1
f 1/1/1 21/2/1 22/3/1 3/4/1
f 3/5/2 22/6/2 23/7/2 7/8/2
f 7/9/3 23/10/3 24/11/3 5/12/3
f 5/13/4 24/14/4 21/15/4 1/16/4
f 3/17/5 7/18/5 5/19/5 1/20/5
f 27/21/6 26/22/6 25/23/6 28/24/6
f 33/25/7 32/26/7 31/27/7 34/28/7
f 29/29/8 36/30/8 35/31/8 30/32/8
f 28/24/9 25/23/9 34/28/9 31/27/9
f 26/22/10 27/21/10 30/32/10 35/31/10
f 21/33/11 24/34/11 32/26/11 33/25/11
f 23/35/12 22/36/12 36/30/12 29/29/12
f 2/37/1 4/38/1 22/3/1 21/2/1
f 8/39/3 6/40/3 24/11/3 23/10/3
f 10/41/1 9/42/1 25/43/1 26/44/1
f 12/45/3 11/46/3 27/47/3 28/48/3
f 18/49/3 14/50/3 29/51/3 30/52/3
f 15/53/3 19/54/3 31/55/3 32/56/3
f 20/57/1 16/58/1 33/59/1 34/60/1
f 13/61/1 17/62/1 35/63/1 36/64/1
f 17/62/1 10/41/1 26/44/1 35/63/1
f 4/38/1 13/61/1 36/64/1 22/3/1
f 19/54/3 12/45/3 28/48/3 31/55/3
f 6/40/3 15/53/3 32/56/3 24/11/3
f 9/42/1 20/57/1 34/60/1 25/43/1
f 11/46/3 18/49/3 30/52/3 27/47/3
f 16/58/1 2/37/1 21/2/1 33/59/1
f 14/50/3 8/39/3 23/10/3 29/51/3
f 12/65/13 19/66/13 51/67/13 44/68/13
f 11/69/14 12/65/14 44/68/14 43/70/14
f 6/71/15 15/72/15 47/73/15 39/74/15
f 14/75/16 18/76/16 50/77/16 46/78/16
f 20/79/17 9/80/17 41/81/17 52/82/17
f 19/66/18 15/72/18 47/73/18 51/67/18
f 18/76/19 11/69/19 43/70/19 50/77/19
f 16/83/20 20/79/20 52/82/20 48/84/20
f 16/83/19 2/85/19 37/86/19 48/84/19
f 17/87/21 13/88/21 45/89/21 49/90/21
f 2/85/14 4/91/14 38/92/14 37/86/14
f 8/93/22 14/75/22 46/78/22 40/94/22
f 10/95/15 17/87/15 49/90/15 42/96/15
f 8/93/23 6/71/23 39/74/23 40/94/23
f 13/88/24 4/91/24 38/92/24 45/89/24
f 9/80/23 10/95/23 42/96/23 41/81/23
f 50/77/3 43/70/3 53/97/3 46/78/3
f 43/70/3 44/68/3 51/67/3 53/97/3
f 46/78/3 53/97/3 39/74/3 40/94/3
f 53/97/3 51/67/3 47/73/3 39/74/3
f 37/86/1 54/98/1 45/89/1 38/92/1
f 54/98/1 42/96/1 49/90/1 45/89/1
f 48/84/1 52/82/1 54/98/1 37/86/1
f 52/82/1 41/81/1 42/96/1 54/98/1
